# This file uses meters as units for non-parametric coordinates.

mtllib Cloud 2.mtl
g default
v 1409.424782 -580.601990 -2655.876875
v 2220.346451 -95.684320 -1283.793211
v 287.999690 1798.550367 -1156.905770
v -1716.050386 -822.199702 -321.557075
v 721.767128 -1703.943014 -977.116823
v 2186.630249 -966.820836 -1327.783942
v 1405.867934 -597.878158 1350.475073
v 964.524686 1393.170357 367.725760
v -654.376328 554.380894 1136.946917
v -856.422901 -1128.068209 1549.723029
v 1060.703158 -1337.347031 1268.738985
v 204.108477 552.008748 1870.560646
v 985.579491 1765.053034 -676.760614
v 2005.057812 321.226954 -678.955138
v -1507.276297 83.963320 488.430709
v -1164.283633 1276.982784 -93.877867
v -401.518852 -1719.072223 940.653920
v -1635.490060 -876.042843 459.018707
v 1918.198705 -1320.028782 -560.725451
v 1443.569064 -1589.651346 -445.502907
v 1943.364620 -553.653121 148.508698
v 1991.523623 -1023.411155 -169.148922
v 1349.290609 233.577549 971.366644
v -279.085755 2170.311213 748.203337
v -1211.475134 -456.411809 1418.623686
v 431.566894 -1279.101968 1610.430717
v 1256.897330 -942.173779 1364.364982
v 378.975332 1430.334330 1270.779014
v 867.550850 322.774380 1524.799824
v -351.610810 1528.531313 1264.154792
v 0.831991 67.116618 1723.836660
v 552.801132 -331.031263 1981.812239
v 1344.593644 379.966915 -2635.167360
v 1763.554335 630.926371 -1482.321620
v 2124.983549 -231.420130 -2076.733351
v -156.714141 -1159.536362 -1421.106815
v -1009.254456 -184.241593 -1381.940246
v 748.655915 -1303.199053 -1971.152306
v -882.285833 -1629.473209 -149.209827
v 2062.661886 -768.355489 -2067.090750
v 1950.061440 -1221.670151 -1570.633888
v 2401.097775 -513.707876 -1489.049196
v 1845.457315 239.707217 -2106.913090
v 309.321702 -247.930497 -2137.161255
v -116.315871 -1551.096082 -1124.818563
v 1821.164846 -1055.390358 -1991.046667
v 2336.189032 -469.862819 -1954.700708
v 1837.795377 797.009587 -1077.646017
v -1314.200878 578.767776 -152.343750
v -1167.326927 -1385.518432 462.550402
v 1964.231968 -1374.223351 -1082.737684
v 2260.443926 -677.638113 -747.771263
v 1738.860846 -205.884099 410.803020
v -412.768811 2163.182259 169.556886
v -1660.163403 -382.184625 738.078535
v 512.896061 -1743.049979 779.460788
v 1656.868935 -1227.390170 461.391896
v 875.044286 859.550238 1163.159847
v -89.162052 1838.281393 1205.198646
v -383.624613 300.653070 1558.198690
v 323.943436 -449.082375 1932.384729
v 907.477140 -286.573946 1729.982495
vt 1.001908 0.500000
vt 0.838104 0.648897
vt 1.088104 0.823792
vt 0.088104 0.823792
vt 1.176208 0.500000
vt 0.176208 0.500000
vt 1.088104 0.176208
vt 0.088104 0.176208
vt 0.838104 0.351103
vt 0.674300 0.500000
vt 0.588104 0.823792
vt 0.338104 0.648897
vt 0.338104 0.351103
vt 0.588104 0.176208
vt 0.501908 0.500000
vt 0.975403 0.666667
vt 1.088104 0.607931
vt 1.088104 0.392069
vt 0.975403 0.333333
vt 0.892069 0.500000
vt 0.838104 0.774597
vt 0.200805 0.666667
vt 0.200805 0.333333
vt 0.838104 0.225403
vt 0.784139 0.500000
vt 0.700805 0.666667
vt 0.338104 0.774597
vt 0.284139 0.500000
vt 0.338104 0.225403
vt 0.700805 0.333333
vt 0.588104 0.607931
vt 0.475403 0.666667
vt 0.392069 0.500000
vt 0.475403 0.333333
vt 0.588104 0.392069
vt 1.037903 0.649597
vt 0.934929 0.735316
vt 0.926394 0.585719
vt 1.088104 0.500000
vt 1.132156 0.661896
vt 0.132156 0.661896
vt 1.037903 0.350403
vt 1.132156 0.338104
vt 0.132156 0.338104
vt 0.926394 0.414281
vt 0.934929 0.264684
vt 0.838104 0.500000
vt 0.838104 0.823792
vt 0.338104 0.823792
vt 0.741279 0.735316
vt 0.249814 0.585719
vt 0.241279 0.735316
vt 0.241279 0.264684
vt 0.249814 0.414281
vt 0.741279 0.264684
vt 0.838104 0.176208
vt 0.338104 0.176208
vt 0.749814 0.585719
vt 0.749814 0.414281
vt 0.638305 0.649597
vt 0.434929 0.735316
vt 0.338104 0.500000
vt 0.434929 0.264684
vt 0.638305 0.350403
vt 0.537903 0.649597
vt 0.588104 0.500000
vt 0.426394 0.585719
vt 0.426394 0.414281
vt 0.537903 0.350403
vn 0.651033 0.151669 -0.743742
vn 0.651033 0.151669 -0.743742
vn 0.651033 0.151669 -0.743742
vn 0.651033 0.151669 -0.743742
vn 0.540026 0.759970 -0.361689
vn 0.540025 0.759970 -0.361689
vn 0.540025 0.759970 -0.361688
vn 0.540025 0.759970 -0.361688
vn 0.852201 0.487731 -0.189401
vn 0.852201 0.487731 -0.189401
vn 0.852201 0.487731 -0.189401
vn 0.852201 0.487731 -0.189401
vn -0.469283 -0.217319 -0.855889
vn -0.469283 -0.217319 -0.855889
vn -0.469283 -0.217319 -0.855889
vn -0.469283 -0.217319 -0.855889
vn -0.529993 -0.434030 -0.728509
vn -0.529993 -0.434030 -0.728509
vn -0.529993 -0.434030 -0.728509
vn -0.529993 -0.434030 -0.728509
vn -0.504164 0.368796 -0.780902
vn -0.504164 0.368796 -0.780902
vn -0.504164 0.368796 -0.780902
vn -0.504164 0.368796 -0.780902
vn -0.523580 -0.379917 -0.762579
vn -0.523580 -0.379917 -0.762579
vn -0.523580 -0.379917 -0.762579
vn -0.523580 -0.379917 -0.762579
vn -0.123955 -0.951561 -0.281367
vn -0.123955 -0.951561 -0.281367
vn -0.123955 -0.951561 -0.281367
vn -0.123955 -0.951561 -0.281367
vn -0.558820 -0.621922 -0.548573
vn -0.558820 -0.621922 -0.548573
vn -0.558820 -0.621922 -0.548573
vn -0.558820 -0.621922 -0.548573
vn 0.241920 -0.712496 -0.658653
vn 0.241920 -0.712496 -0.658653
vn 0.241920 -0.712496 -0.658653
vn 0.241920 -0.712496 -0.658653
vn 0.754553 -0.560755 -0.340886
vn 0.754553 -0.560755 -0.340886
vn 0.754553 -0.560755 -0.340886
vn 0.754553 -0.560755 -0.340886
vn 0.187274 -0.907034 -0.377118
vn 0.187274 -0.907034 -0.377118
vn 0.187274 -0.907034 -0.377118
vn 0.187274 -0.907034 -0.377118
vn 0.607604 -0.084706 -0.789710
vn 0.607604 -0.084706 -0.789710
vn 0.607604 -0.084706 -0.789710
vn 0.607604 -0.084706 -0.789710
vn 0.841300 0.520717 -0.145151
vn 0.841300 0.520717 -0.145151
vn 0.841300 0.520717 -0.145151
vn 0.841300 0.520717 -0.145151
vn 0.808124 -0.539988 -0.235262
vn 0.808124 -0.539988 -0.235262
vn 0.808124 -0.539988 -0.235262
vn 0.808124 -0.539988 -0.235262
vn 0.903678 0.413207 -0.112367
vn 0.903678 0.413207 -0.112367
vn 0.903678 0.413207 -0.112367
vn 0.903678 0.413207 -0.112367
vn 0.480822 0.702507 -0.524684
vn 0.480822 0.702507 -0.524684
vn 0.480822 0.702507 -0.524684
vn 0.480822 0.702507 -0.524684
vn 0.791570 0.558547 0.247875
vn 0.791570 0.558547 0.247875
vn 0.791570 0.558547 0.247875
vn 0.791570 0.558547 0.247875
vn -0.692150 0.434551 -0.576276
vn -0.692150 0.434551 -0.576276
vn -0.692150 0.434551 -0.576276
vn -0.692150 0.434551 -0.576276
vn -0.911643 0.295938 -0.285179
vn -0.911643 0.295938 -0.285179
vn -0.911643 0.295938 -0.285179
vn -0.911643 0.295938 -0.285179
vn -0.798951 0.433272 0.417077
vn -0.798951 0.433272 0.417077
vn -0.798951 0.433272 0.417077
vn -0.798951 0.433272 0.417077
vn -0.710520 -0.703628 -0.008274
vn -0.710521 -0.703628 -0.008274
vn -0.710521 -0.703628 -0.008274
vn -0.710520 -0.703628 -0.008274
vn -0.170503 -0.985340 -0.005793
vn -0.170503 -0.985340 -0.005793
vn -0.170503 -0.985340 -0.005793
vn -0.170503 -0.985340 -0.005793
vn -0.617519 -0.707300 0.344089
vn -0.617519 -0.707300 0.344089
vn -0.617519 -0.707300 0.344089
vn -0.617519 -0.707300 0.344089
vn 0.234719 -0.950179 -0.205100
vn 0.234719 -0.950179 -0.205100
vn 0.234719 -0.950179 -0.205100
vn 0.234719 -0.950179 -0.205100
vn 0.872441 -0.488309 -0.020032
vn 0.872441 -0.488309 -0.020032
vn 0.872441 -0.488309 -0.020032
vn 0.872441 -0.488309 -0.020032
vn 0.521198 -0.826370 0.213224
vn 0.521198 -0.826370 0.213224
vn 0.521198 -0.826370 0.213224
vn 0.521198 -0.826370 0.213224
vn 0.891283 -0.440801 0.106348
vn 0.891283 -0.440801 0.106348
vn 0.891283 -0.440801 0.106348
vn 0.891283 -0.440801 0.106348
vn 0.915079 0.305511 0.263237
vn 0.915079 0.305511 0.263237
vn 0.915079 0.305511 0.263237
vn 0.915079 0.305511 0.263237
vn 0.911767 -0.161796 0.377496
vn 0.911767 -0.161796 0.377496
vn 0.911767 -0.161796 0.377496
vn 0.911767 -0.161796 0.377496
vn 0.939337 0.198393 0.279795
vn 0.939337 0.198393 0.279795
vn 0.939337 0.198393 0.279795
vn 0.939337 0.198393 0.279795
vn 0.837653 0.415191 0.354899
vn 0.837653 0.415191 0.354899
vn 0.837653 0.415191 0.354899
vn 0.837653 0.415191 0.354899
vn 0.880883 0.235691 0.410481
vn 0.880883 0.235691 0.410481
vn 0.880883 0.235691 0.410481
vn 0.880883 0.235691 0.410481
vn -0.304480 0.865080 -0.398659
vn -0.304480 0.865080 -0.398659
vn -0.304480 0.865080 -0.398659
vn -0.304480 0.865080 -0.398659
vn -0.809877 0.386805 0.441000
vn -0.809877 0.386805 0.441000
vn -0.809877 0.386805 0.441000
vn -0.809877 0.386805 0.441000
vn 0.463383 0.870932 0.163564
vn 0.463383 0.870932 0.163564
vn 0.463383 0.870932 0.163564
vn 0.463383 0.870932 0.163564
vn -0.991184 0.132461 -0.002728
vn -0.991184 0.132461 -0.002728
vn -0.991184 0.132461 -0.002728
vn -0.991184 0.132461 -0.002728
vn -0.804191 -0.325168 0.497537
vn -0.804191 -0.325168 0.497537
vn -0.804191 -0.325168 0.497537
vn -0.804191 -0.325168 0.497537
vn -0.684205 0.514757 0.516613
vn -0.684205 0.514757 0.516613
vn -0.684205 0.514757 0.516613
vn -0.684205 0.514757 0.516613
vn 0.058550 -0.998168 -0.015260
vn 0.058550 -0.998168 -0.015260
vn 0.058550 -0.998168 -0.015260
vn 0.058550 -0.998168 -0.015260
vn 0.368248 -0.875286 0.313477
vn 0.368248 -0.875286 0.313477
vn 0.368248 -0.875286 0.313477
vn 0.368248 -0.875286 0.313477
vn -0.038068 -0.812813 0.581280
vn -0.038068 -0.812813 0.581280
vn -0.038068 -0.812813 0.581280
vn -0.038068 -0.812813 0.581280
vn 0.865802 -0.463371 0.188874
vn 0.865802 -0.463371 0.188874
vn 0.865803 -0.463371 0.188874
vn 0.865803 -0.463371 0.188874
vn 0.865427 -0.259908 0.428350
vn 0.865427 -0.259908 0.428349
vn 0.865427 -0.259908 0.428350
vn 0.865427 -0.259908 0.428350
vn 0.603751 -0.717127 0.348156
vn 0.603751 -0.717127 0.348156
vn 0.603751 -0.717127 0.348156
vn 0.603751 -0.717127 0.348156
vn 0.735208 0.342925 0.584698
vn 0.735208 0.342925 0.584698
vn 0.735208 0.342925 0.584698
vn 0.735208 0.342925 0.584698
vn 0.752700 0.504432 0.423073
vn 0.752700 0.504432 0.423073
vn 0.752700 0.504432 0.423073
vn 0.752700 0.504432 0.423073
vn 0.564395 0.412914 0.714815
vn 0.564395 0.412914 0.714815
vn 0.564395 0.412914 0.714815
vn 0.564395 0.412914 0.714815
vn 0.577626 0.746665 0.329907
vn 0.577626 0.746665 0.329907
vn 0.577626 0.746665 0.329907
vn 0.577626 0.746665 0.329907
vn -0.869695 0.365217 0.332035
vn -0.869695 0.365217 0.332035
vn -0.869695 0.365217 0.332035
vn -0.869695 0.365217 0.332035
vn 0.054992 0.468617 0.881688
vn 0.054992 0.468617 0.881688
vn 0.054992 0.468617 0.881688
vn 0.054992 0.468617 0.881688
vn -0.681060 0.345280 0.645708
vn -0.681060 0.345280 0.645708
vn -0.681060 0.345280 0.645708
vn -0.681060 0.345280 0.645708
vn -0.278146 0.086370 0.956648
vn -0.278146 0.086370 0.956648
vn -0.278146 0.086370 0.956648
vn -0.278146 0.086370 0.956648
vn -0.511515 0.143145 0.847267
vn -0.511515 0.143145 0.847267
vn -0.511515 0.143145 0.847267
vn -0.511515 0.143145 0.847267
vn -0.224139 -0.152797 0.962504
vn -0.224139 -0.152797 0.962504
vn -0.224139 -0.152797 0.962504
vn -0.224139 -0.152797 0.962504
vn 0.321828 -0.380729 0.866875
vn 0.321828 -0.380729 0.866875
vn 0.321828 -0.380729 0.866875
vn 0.321828 -0.380729 0.866875
vn -0.419984 0.005771 0.907513
vn -0.419984 0.005771 0.907513
vn -0.419984 0.005771 0.907513
vn -0.419984 0.005771 0.907513
vn 0.471653 -0.295851 0.830672
vn 0.471653 -0.295851 0.830672
vn 0.471653 -0.295851 0.830672
vn 0.471653 -0.295851 0.830672
vn 0.641951 0.101193 0.760039
vn 0.641951 0.101193 0.760039
vn 0.641951 0.101193 0.760039
vn 0.641951 0.101193 0.760039
vn 0.522648 0.304909 0.796159
vn 0.522648 0.304909 0.796159
vn 0.522648 0.304909 0.796159
vn 0.522648 0.304909 0.796159
s off
g pPlatonic1
usemtl initialShadingGroup
f 1/1/1 33/36/2 43/16/3 35/38/4
f 3/3/5 34/37/6 43/16/7 33/36/8
f 2/2/9 35/38/10 43/16/11 34/37/12
f 1/1/13 36/39/14 44/17/15 33/36/16
f 4/5/17 37/40/18 44/17/19 36/39/20
f 3/3/21 33/36/22 44/17/23 37/40/24
f 1/1/25 38/42/26 45/18/27 36/39/28
f 5/7/29 39/43/30 45/18/31 38/42/32
f 4/5/33 36/39/34 45/18/35 39/43/36
f 1/1/37 40/45/38 46/19/39 38/42/40
f 6/9/41 41/46/42 46/19/43 40/45/44
f 5/7/45 38/42/46 46/19/47 41/46/48
f 1/1/49 35/38/50 47/20/51 40/45/52
f 2/2/53 42/47/54 47/20/55 35/38/56
f 6/9/57 40/45/58 47/20/59 42/47/60
f 2/2/61 34/37/62 48/21/63 14/50/64
f 3/3/65 13/48/66 48/21/67 34/37/68
f 8/11/69 14/50/70 48/21/71 13/48/72
f 3/4/73 37/41/74 49/22/75 16/52/76
f 4/6/77 15/51/78 49/22/79 37/41/80
f 9/12/81 16/52/82 49/22/83 15/51/84
f 4/6/85 39/44/86 50/23/87 18/54/88
f 5/8/89 17/53/90 50/23/91 39/44/92
f 10/13/93 18/54/94 50/23/95 17/53/96
f 5/7/97 41/46/98 51/24/99 20/56/100
f 6/9/101 19/55/102 51/24/103 41/46/104
f 11/14/105 20/56/106 51/24/107 19/55/108
f 6/9/109 42/47/110 52/25/111 22/59/112
f 2/2/113 21/58/114 52/25/115 42/47/116
f 7/10/117 22/59/118 52/25/119 21/58/120
f 2/2/121 14/50/122 53/26/123 21/58/124
f 8/11/125 23/60/126 53/26/127 14/50/128
f 7/10/129 21/58/130 53/26/131 23/60/132
f 3/4/133 16/52/134 54/27/135 13/49/136
f 9/12/137 24/61/138 54/27/139 16/52/140
f 8/11/141 13/49/142 54/27/143 24/61/144
f 4/6/145 18/54/146 55/28/147 15/51/148
f 10/13/149 25/62/150 55/28/151 18/54/152
f 9/12/153 15/51/154 55/28/155 25/62/156
f 5/8/157 20/57/158 56/29/159 17/53/160
f 11/14/161 26/63/162 56/29/163 20/57/164
f 10/13/165 17/53/166 56/29/167 26/63/168
f 6/9/169 22/59/170 57/30/171 19/55/172
f 7/10/173 27/64/174 57/30/175 22/59/176
f 11/14/177 19/55/178 57/30/179 27/64/180
f 7/10/181 23/60/182 58/31/183 29/66/184
f 8/11/185 28/65/186 58/31/187 23/60/188
f 12/15/189 29/66/190 58/31/191 28/65/192
f 8/11/193 24/61/194 59/32/195 28/65/196
f 9/12/197 30/67/198 59/32/199 24/61/200
f 12/15/201 28/65/202 59/32/203 30/67/204
f 9/12/205 25/62/206 60/33/207 30/67/208
f 10/13/209 31/68/210 60/33/211 25/62/212
f 12/15/213 30/67/214 60/33/215 31/68/216
f 10/13/217 26/63/218 61/34/219 31/68/220
f 11/14/221 32/69/222 61/34/223 26/63/224
f 12/15/225 31/68/226 61/34/227 32/69/228
f 11/14/229 27/64/230 62/35/231 32/69/232
f 7/10/233 29/66/234 62/35/235 27/64/236
f 12/15/237 32/69/238 62/35/239 29/66/240
