# This file uses meters as units for non-parametric coordinates.

mtllib Grass Mesh.mtl
g default
v 2.822513 0.186782 0.437752
v 2.133636 0.252130 2.955532
v 1.600877 0.186782 5.510905
v 3.539698 3.766066 0.610454
v 2.633350 4.020503 3.075865
v 2.318062 3.766066 5.683606
v 3.258215 8.627650 0.542671
v 2.303229 9.153347 2.996370
v 2.036579 8.627650 5.615824
v 4.452230 13.430556 0.830195
v 3.721187 14.128346 3.337821
v 3.230594 13.430556 5.903347
v 7.574497 16.076723 1.582049
v 7.121665 16.636531 4.156669
v 6.352861 16.076724 6.655202
v 11.330326 16.206205 2.486468
v 10.973161 16.473791 5.084125
v 10.108690 16.206204 7.559621
vt 0.000000 0.000000
vt 0.500000 0.000000
vt 1.000000 0.000000
vt 0.000000 0.200000
vt 0.500000 0.200000
vt 1.000000 0.200000
vt 0.000000 0.400000
vt 0.500000 0.400000
vt 1.000000 0.400000
vt 0.000000 0.600000
vt 0.500000 0.600000
vt 1.000000 0.600000
vt 0.000000 0.800000
vt 0.500000 0.800000
vt 1.000000 0.800000
vt 0.000000 1.000000
vt 0.500000 1.000000
vt 1.000000 1.000000
vn -0.943373 0.201731 -0.263348
vn -0.954183 0.191676 -0.229771
vn -0.936109 0.073465 -0.343951
vn -0.972123 -0.013329 -0.234091
vn -0.959842 0.201731 -0.194954
vn -0.990066 0.073465 -0.119880
vn -0.932073 0.000722 -0.362269
vn -0.955868 0.182577 -0.230177
vn -0.994811 0.000722 -0.101733
vn -0.778453 0.505556 -0.372054
vn -0.810026 0.553001 -0.195058
vn -0.862485 0.505556 -0.023091
vn -0.204551 0.943725 -0.259887
vn -0.405593 0.908821 -0.097669
vn -0.300432 0.943725 0.138285
vn 0.059500 0.992604 -0.105814
vn 0.039904 0.999157 0.009609
vn 0.004810 0.992604 0.121300
s 1
g pPlane1 Outside
usemtl initialShadingGroup
f 1/1/1 2/2/2 4/4/3
f 4/4/3 2/2/2 5/5/4
f 3/3/5 6/6/6 2/2/2
f 2/2/2 6/6/6 5/5/4
f 4/4/3 5/5/4 7/7/7
f 7/7/7 5/5/4 8/8/8
f 6/6/6 9/9/9 5/5/4
f 5/5/4 9/9/9 8/8/8
f 7/7/7 8/8/8 10/10/10
f 10/10/10 8/8/8 11/11/11
f 9/9/9 12/12/12 8/8/8
f 8/8/8 12/12/12 11/11/11
f 10/10/10 11/11/11 13/13/13
f 13/13/13 11/11/11 14/14/14
f 12/12/12 15/15/15 11/11/11
f 11/11/11 15/15/15 14/14/14
f 13/13/13 14/14/14 16/16/16
f 16/16/16 14/14/14 17/17/17
f 15/15/15 18/18/18 14/14/14
f 14/14/14 18/18/18 17/17/17
g default
v 1.154162 0.186782 5.042667
v -0.261887 0.252130 2.849822
v -1.810092 0.186782 0.748197
v 0.547058 3.766066 5.461720
v -0.684899 4.020503 3.141806
v -2.417195 3.766066 1.167250
v 0.785337 8.627650 5.297248
v -0.405449 9.153347 2.948916
v -2.178918 8.627650 1.002779
v -0.225408 13.430556 5.994914
v -1.605764 14.128346 3.777431
v -3.189662 13.430556 1.700445
v -2.868435 16.076723 7.819262
v -4.484297 16.636532 5.764337
v -5.832689 16.076724 3.524792
v -6.047779 16.206205 10.013801
v -7.744625 16.473791 8.014776
v -9.012032 16.206204 5.719331
vt 0.000000 0.000000
vt 0.500000 0.000000
vt 1.000000 0.000000
vt 0.000000 0.200000
vt 0.500000 0.200000
vt 1.000000 0.200000
vt 0.000000 0.400000
vt 0.500000 0.400000
vt 1.000000 0.400000
vt 0.000000 0.600000
vt 0.500000 0.600000
vt 1.000000 0.600000
vt 0.000000 0.800000
vt 0.500000 0.800000
vt 1.000000 0.800000
vt 0.000000 1.000000
vt 0.500000 1.000000
vt 1.000000 1.000000
vn 0.825526 0.201731 -0.527079
vn 0.807725 0.191676 -0.557531
vn 0.880725 0.073465 -0.467895
vn 0.822911 -0.013329 -0.568014
vn 0.785563 0.201731 -0.584974
vn 0.749800 0.073465 -0.657573
vn 0.891679 0.000722 -0.452669
vn 0.809151 0.182577 -0.558516
vn 0.739447 0.000722 -0.673215
vn 0.796484 0.505556 -0.331702
vn 0.685694 0.553001 -0.473300
vn 0.592585 0.505556 -0.627102
vn 0.330063 0.943725 0.020998
vn 0.343339 0.908820 -0.236989
vn 0.097409 0.943726 -0.316059
vn 0.039132 0.992604 0.114915
vn -0.033780 0.999157 0.023316
vn -0.093571 0.992604 -0.077338
s 1
g Outside pPlane2
usemtl initialShadingGroup
f 19/19/19 20/20/20 22/22/21
f 22/22/21 20/20/20 23/23/22
f 21/21/23 24/24/24 20/20/20
f 20/20/20 24/24/24 23/23/22
f 22/22/21 23/23/22 25/25/25
f 25/25/25 23/23/22 26/26/26
f 24/24/24 27/27/27 23/23/22
f 23/23/22 27/27/27 26/26/26
f 25/25/25 26/26/26 28/28/28
f 28/28/28 26/26/26 29/29/29
f 27/27/27 30/30/30 26/26/26
f 26/26/26 30/30/30 29/29/29
f 28/28/28 29/29/29 31/31/31
f 31/31/31 29/29/29 32/32/32
f 30/30/30 33/33/33 29/29/29
f 29/29/29 33/33/33 32/32/32
f 31/31/31 32/32/32 34/34/34
f 34/34/34 32/32/32 35/35/35
f 33/33/33 36/36/36 32/32/32
f 32/32/32 36/36/36 35/35/35
g default
v -2.589187 0.186782 0.801961
v -0.140282 0.252130 -0.101714
v 2.248423 0.186782 -1.154259
v -2.865735 3.766066 0.118075
v -0.332973 4.020503 -0.578226
v 1.971875 3.766066 -1.838146
v -2.757194 8.627650 0.386489
v -0.205678 9.153347 -0.263433
v 2.080416 8.627650 -1.569732
v -3.217610 13.430556 -0.752089
v -0.752445 14.128346 -1.615556
v 1.620000 13.430556 -2.708309
v -4.421564 16.076723 -3.729392
v -2.063679 16.636531 -4.858152
v 0.416046 16.076724 -5.685612
v -5.869822 16.206205 -7.310841
v -3.548826 16.473791 -8.530827
v -1.032211 16.206204 -9.267061
vt 0.000000 0.000000
vt 0.500000 0.000000
vt 1.000000 0.000000
vt 0.000000 0.200000
vt 0.500000 0.200000
vt 1.000000 0.200000
vt 0.000000 0.400000
vt 0.500000 0.400000
vt 1.000000 0.400000
vt 0.000000 0.600000
vt 0.500000 0.600000
vt 1.000000 0.600000
vt 0.000000 0.800000
vt 0.500000 0.800000
vt 1.000000 0.800000
vt 0.000000 1.000000
vt 0.500000 1.000000
vt 1.000000 1.000000
vn 0.334333 0.201731 0.920612
vn 0.367935 0.191676 0.909881
vn 0.264536 0.073465 0.961574
vn 0.374853 -0.013329 0.926988
vn 0.399551 0.201731 0.894239
vn 0.478203 0.073465 0.875171
vn 0.247286 0.000722 0.968942
vn 0.368585 0.182577 0.911488
vn 0.495726 0.000722 0.868479
vn 0.149995 0.505556 0.849656
vn 0.312348 0.553001 0.772417
vn 0.482755 0.505556 0.715095
vn -0.092481 0.943725 0.317537
vn 0.156398 0.908821 0.386762
vn 0.287204 0.943725 0.164001
vn -0.120683 0.992604 0.013126
vn -0.015387 0.999157 -0.038052
vn 0.095885 0.992604 -0.074450
s 1
g Outside pPlane3
usemtl initialShadingGroup
f 37/37/37 38/38/38 40/40/39
f 40/40/39 38/38/38 41/41/40
f 39/39/41 42/42/42 38/38/38
f 38/38/38 42/42/42 41/41/40
f 40/40/39 41/41/40 43/43/43
f 43/43/43 41/41/40 44/44/44
f 42/42/42 45/45/45 41/41/40
f 41/41/40 45/45/45 44/44/44
f 43/43/43 44/44/44 46/46/46
f 46/46/46 44/44/44 47/47/47
f 45/45/45 48/48/48 44/44/44
f 44/44/44 48/48/48 47/47/47
f 46/46/46 47/47/47 49/49/49
f 49/49/49 47/47/47 50/50/50
f 48/48/48 51/51/51 47/47/47
f 47/47/47 51/51/51 50/50/50
f 49/49/49 50/50/50 52/52/52
f 52/52/52 50/50/50 53/53/53
f 51/51/51 54/54/54 50/50/50
f 50/50/50 54/54/54 53/53/53
g default
v 2.822513 0.186782 0.437752
v 2.133636 0.252130 2.955532
v 1.600877 0.186782 5.510905
v 3.539698 3.766065 0.610453
v 2.633350 4.020503 3.075865
v 2.318062 3.766066 5.683606
v 3.258215 8.627650 0.542671
v 2.303229 9.153347 2.996370
v 2.036579 8.627650 5.615824
v 4.452230 13.430556 0.830195
v 3.721187 14.128345 3.337821
v 3.230594 13.430555 5.903347
v 7.574497 16.076723 1.582049
v 7.121665 16.636531 4.156669
v 6.352861 16.076724 6.655202
v 11.330326 16.206205 2.486468
v 10.973161 16.473791 5.084125
v 10.108690 16.206204 7.559621
vt 0.000000 0.000000
vt 0.500000 0.000000
vt 1.000000 0.000000
vt 0.000000 0.200000
vt 0.500000 0.200000
vt 1.000000 0.200000
vt 0.000000 0.400000
vt 0.500000 0.400000
vt 1.000000 0.400000
vt 0.000000 0.600000
vt 0.500000 0.600000
vt 1.000000 0.600000
vt 0.000000 0.800000
vt 0.500000 0.800000
vt 1.000000 0.800000
vt 0.000000 1.000000
vt 0.500000 1.000000
vt 1.000000 1.000000
vn -0.234112 0.000000 0.972210
vn -0.234112 0.000000 0.972210
vn -0.234112 0.000000 0.972210
vn -0.234112 0.000000 0.972210
vn -0.234112 0.000000 0.972210
vn -0.234112 0.000000 0.972210
vn -0.234112 0.000000 0.972210
vn -0.234112 0.000000 0.972210
vn -0.234112 0.000000 0.972210
vn -0.234112 0.000000 0.972210
vn -0.234112 0.000000 0.972210
vn -0.234112 0.000000 0.972210
vn -0.234112 0.000000 0.972210
vn -0.234112 0.000000 0.972210
vn -0.234112 0.000000 0.972210
vn -0.234112 0.000000 0.972210
vn -0.234112 0.000000 0.972210
vn -0.234112 0.000000 0.972210
s 1
g pPlane1 Inside
usemtl initialShadingGroup
f 55/55/55 58/58/56 56/56/57
f 58/58/56 59/59/58 56/56/57
f 57/57/59 56/56/57 60/60/60
f 56/56/57 59/59/58 60/60/60
f 58/58/56 61/61/61 59/59/58
f 61/61/61 62/62/62 59/59/58
f 60/60/60 59/59/58 63/63/63
f 59/59/58 62/62/62 63/63/63
f 61/61/61 64/64/64 62/62/62
f 64/64/64 65/65/65 62/62/62
f 63/63/63 62/62/62 66/66/66
f 62/62/62 65/65/65 66/66/66
f 64/64/64 67/67/67 65/65/65
f 67/67/67 68/68/68 65/65/65
f 66/66/66 65/65/65 69/69/69
f 65/65/65 68/68/68 69/69/69
f 67/67/67 70/70/70 68/68/68
f 70/70/70 71/71/71 68/68/68
f 69/69/69 68/68/68 72/72/72
f 68/68/68 71/71/71 72/72/72
g default
v 1.154162 0.186782 5.042667
v -0.261887 0.252130 2.849822
v -1.810092 0.186782 0.748197
v 0.547058 3.766066 5.461720
v -0.684899 4.020503 3.141806
v -2.417195 3.766066 1.167250
v 0.785337 8.627650 5.297248
v -0.405449 9.153347 2.948916
v -2.178918 8.627650 1.002779
v -0.225408 13.430556 5.994914
v -1.605764 14.128346 3.777431
v -3.189662 13.430556 1.700445
v -2.868435 16.076723 7.819262
v -4.484297 16.636532 5.764337
v -5.832689 16.076724 3.524792
v -6.047779 16.206205 10.013801
v -7.744625 16.473791 8.014776
v -9.012032 16.206204 5.719331
vt 0.000000 0.000000
vt 0.500000 0.000000
vt 1.000000 0.000000
vt 0.000000 0.200000
vt 0.500000 0.200000
vt 1.000000 0.200000
vt 0.000000 0.400000
vt 0.500000 0.400000
vt 1.000000 0.400000
vt 0.000000 0.600000
vt 0.500000 0.600000
vt 1.000000 0.600000
vt 0.000000 0.800000
vt 0.500000 0.800000
vt 1.000000 0.800000
vt 0.000000 1.000000
vt 0.500000 1.000000
vt 1.000000 1.000000
vn -0.825526 -0.201731 0.527079
vn -0.880725 -0.073465 0.467895
vn -0.807725 -0.191676 0.557531
vn -0.822911 0.013329 0.568014
vn -0.785563 -0.201731 0.584974
vn -0.749800 -0.073465 0.657573
vn -0.891679 -0.000722 0.452668
vn -0.809151 -0.182577 0.558516
vn -0.739447 -0.000722 0.673214
vn -0.796484 -0.505556 0.331702
vn -0.685694 -0.553001 0.473300
vn -0.592585 -0.505556 0.627102
vn -0.330063 -0.943725 -0.020997
vn -0.343339 -0.908820 0.236989
vn -0.097409 -0.943725 0.316060
vn -0.039132 -0.992604 -0.114915
vn 0.033780 -0.999157 -0.023316
vn 0.093571 -0.992604 0.077339
s 1
g Inside pPlane2
usemtl initialShadingGroup
f 73/73/73 76/76/74 74/74/75
f 76/76/74 77/77/76 74/74/75
f 75/75/77 74/74/75 78/78/78
f 74/74/75 77/77/76 78/78/78
f 76/76/74 79/79/79 77/77/76
f 79/79/79 80/80/80 77/77/76
f 78/78/78 77/77/76 81/81/81
f 77/77/76 80/80/80 81/81/81
f 79/79/79 82/82/82 80/80/80
f 82/82/82 83/83/83 80/80/80
f 81/81/81 80/80/80 84/84/84
f 80/80/80 83/83/83 84/84/84
f 82/82/82 85/85/85 83/83/83
f 85/85/85 86/86/86 83/83/83
f 84/84/84 83/83/83 87/87/87
f 83/83/83 86/86/86 87/87/87
f 85/85/85 88/88/88 86/86/86
f 88/88/88 89/89/89 86/86/86
f 87/87/87 86/86/86 90/90/90
f 86/86/86 89/89/89 90/90/90
g default
v -2.589187 0.186782 0.801961
v -0.140282 0.252130 -0.101714
v 2.248423 0.186782 -1.154259
v -2.865735 3.766066 0.118075
v -0.332973 4.020503 -0.578226
v 1.971875 3.766066 -1.838146
v -2.757194 8.627650 0.386489
v -0.205678 9.153347 -0.263433
v 2.080416 8.627650 -1.569732
v -3.217610 13.430556 -0.752089
v -0.752445 14.128346 -1.615556
v 1.620000 13.430556 -2.708309
v -4.421564 16.076723 -3.729392
v -2.063679 16.636531 -4.858152
v 0.416046 16.076724 -5.685612
v -5.869822 16.206205 -7.310841
v -3.548826 16.473791 -8.530827
v -1.032211 16.206204 -9.267061
vt 0.000000 0.000000
vt 0.500000 0.000000
vt 1.000000 0.000000
vt 0.000000 0.200000
vt 0.500000 0.200000
vt 1.000000 0.200000
vt 0.000000 0.400000
vt 0.500000 0.400000
vt 1.000000 0.400000
vt 0.000000 0.600000
vt 0.500000 0.600000
vt 1.000000 0.600000
vt 0.000000 0.800000
vt 0.500000 0.800000
vt 1.000000 0.800000
vt 0.000000 1.000000
vt 0.500000 1.000000
vt 1.000000 1.000000
vn -0.334333 -0.201731 -0.920612
vn -0.264535 -0.073465 -0.961574
vn -0.367935 -0.191676 -0.909881
vn -0.374853 0.013329 -0.926988
vn -0.399551 -0.201731 -0.894239
vn -0.478203 -0.073465 -0.875171
vn -0.247286 -0.000722 -0.968942
vn -0.368585 -0.182577 -0.911488
vn -0.495726 -0.000722 -0.868479
vn -0.149995 -0.505556 -0.849656
vn -0.312348 -0.553001 -0.772417
vn -0.482755 -0.505556 -0.715095
vn 0.092481 -0.943725 -0.317537
vn -0.156398 -0.908821 -0.386762
vn -0.287204 -0.943725 -0.164001
vn 0.120683 -0.992604 -0.013126
vn 0.015387 -0.999157 0.038051
vn -0.095885 -0.992604 0.074450
s 1
g Inside pPlane3
usemtl initialShadingGroup
f 91/91/91 94/94/92 92/92/93
f 94/94/92 95/95/94 92/92/93
f 93/93/95 92/92/93 96/96/96
f 92/92/93 95/95/94 96/96/96
f 94/94/92 97/97/97 95/95/94
f 97/97/97 98/98/98 95/95/94
f 96/96/96 95/95/94 99/99/99
f 95/95/94 98/98/98 99/99/99
f 97/97/97 100/100/100 98/98/98
f 100/100/100 101/101/101 98/98/98
f 99/99/99 98/98/98 102/102/102
f 98/98/98 101/101/101 102/102/102
f 100/100/100 103/103/103 101/101/101
f 103/103/103 104/104/104 101/101/101
f 102/102/102 101/101/101 105/105/105
f 101/101/101 104/104/104 105/105/105
f 103/103/103 106/106/106 104/104/104
f 106/106/106 107/107/107 104/104/104
f 105/105/105 104/104/104 108/108/108
f 104/104/104 107/107/107 108/108/108
