# This file uses meters as units for non-parametric coordinates.

mtllib Mountain_1.mtl
g default
v 336.151631 0.000000 -582.231376
v -336.151371 0.000000 -582.231496
v -672.302942 0.000000 -0.000100
v -336.151551 0.000000 582.231416
v 336.151451 0.000000 582.231456
v 672.302942 0.000000 0.000000
v 256.011784 155.764058 -498.752718
v -301.270530 155.764058 -556.366059
v -629.806225 155.764058 -102.552218
v -401.059747 155.764058 408.875183
v 156.222566 155.764058 466.488403
v 484.758282 155.764058 12.674417
v 152.276780 407.199817 -373.436134
v -137.924767 407.199817 -403.437922
v -558.033230 407.199817 -56.646840
v -401.525308 407.199817 349.756404
v 256.214490 407.199817 417.755342
v 492.553882 407.199817 51.965659
v 125.234456 658.635592 -258.551471
v -200.381806 658.635592 -342.049203
v -435.501034 658.635592 -101.806150
v -345.004100 658.635592 221.934654
v -19.387748 658.635592 305.432326
v 215.731410 658.635592 65.189229
v -2.492101 879.190538 -188.099682
v -141.452920 901.654212 -242.798098
v -255.397835 933.203396 -148.841495
v -279.470294 959.754912 94.485989
v -73.262315 926.420384 175.654484
v 95.823855 879.603605 36.229620
v 25.453186 1141.519512 -45.574952
v -48.401121 1148.764799 -127.911411
v -152.387970 1185.578771 -108.245070
v -189.045611 1196.282264 -2.902983
v -121.831169 1150.058535 80.521421
v 38.248920 1144.635060 -44.938858
v -61.036213 1410.076135 -44.938858
vt 0.625000 0.033494
vt 0.375000 0.033494
vt 0.250000 0.250000
vt 0.375000 0.466506
vt 0.625000 0.466506
vt 0.750000 0.250000
vt 0.250000 0.500000
vt 0.333333 0.500000
vt 0.416667 0.500000
vt 0.500000 0.500000
vt 0.583333 0.500000
vt 0.666667 0.500000
vt 0.750000 0.500000
vt 0.291667 0.583333
vt 0.361111 0.583333
vt 0.430556 0.583333
vt 0.500000 0.583333
vt 0.569444 0.583333
vt 0.638889 0.583333
vt 0.708333 0.583333
vt 0.333333 0.666667
vt 0.388889 0.666667
vt 0.444444 0.666667
vt 0.500000 0.666667
vt 0.555556 0.666667
vt 0.611111 0.666667
vt 0.666667 0.666667
vt 0.375000 0.750000
vt 0.416667 0.750000
vt 0.458333 0.750000
vt 0.500000 0.750000
vt 0.541667 0.750000
vt 0.583333 0.750000
vt 0.625000 0.750000
vt 0.416667 0.833333
vt 0.444444 0.833333
vt 0.472222 0.833333
vt 0.500000 0.833333
vt 0.527778 0.833333
vt 0.555556 0.833333
vt 0.583333 0.833333
vt 0.458333 0.916667
vt 0.472222 0.916667
vt 0.486111 0.916667
vt 0.500000 0.916667
vt 0.513889 0.916667
vt 0.527778 0.916667
vt 0.541667 0.916667
vt 0.500000 1.000000
vn 0.000000 0.472369 -0.881401
vn 0.000000 0.472369 -0.881401
vn 0.000000 0.472369 -0.881401
vn 0.101811 0.140732 -0.984799
vn 0.101811 0.140732 -0.984799
vn 0.101811 0.140732 -0.984799
vn -0.834607 0.266912 -0.481861
vn -0.834607 0.266912 -0.481861
vn -0.834607 0.266912 -0.481861
vn -0.799200 -0.162880 -0.578575
vn -0.799200 -0.162880 -0.578575
vn -0.799200 -0.162880 -0.578575
vn -0.753849 0.492221 0.435235
vn -0.753849 0.492221 0.435235
vn -0.753849 0.492221 0.435235
vn -0.910361 0.073810 0.407178
vn -0.910361 0.073810 0.407178
vn -0.910361 0.073810 0.407178
vn 0.000000 0.743841 0.668356
vn 0.000000 0.743841 0.668356
vn 0.000000 0.743841 0.668356
vn -0.087386 0.527148 0.845268
vn -0.087386 0.527148 0.845268
vn -0.087386 0.527148 0.845269
vn 0.510121 0.808106 0.294518
vn 0.510121 0.808106 0.294518
vn 0.510121 0.808106 0.294518
vn 0.593872 0.680057 0.429930
vn 0.593872 0.680056 0.429930
vn 0.593872 0.680056 0.429930
vn 0.587387 0.734826 -0.339128
vn 0.587387 0.734826 -0.339128
vn 0.587387 0.734826 -0.339128
vn 0.751886 0.567073 -0.336297
vn 0.751886 0.567073 -0.336297
vn 0.751886 0.567073 -0.336297
vn 0.090553 0.473913 -0.875903
vn 0.090553 0.473913 -0.875903
vn 0.090553 0.473913 -0.875903
vn 0.090553 0.473913 -0.875903
vn 0.090553 0.473913 -0.875903
vn 0.090553 0.473913 -0.875903
vn -0.607219 0.661849 -0.439592
vn -0.607219 0.661849 -0.439592
vn -0.607219 0.661849 -0.439592
vn -0.605872 0.306949 -0.733963
vn -0.605872 0.306949 -0.733963
vn -0.605872 0.306949 -0.733963
vn -0.897454 0.182895 0.401405
vn -0.897454 0.182895 0.401405
vn -0.897454 0.182895 0.401405
vn -0.930012 0.082488 0.358152
vn -0.930012 0.082488 0.358152
vn -0.930012 0.082488 0.358152
vn -0.100137 0.227557 0.968602
vn -0.100137 0.227557 0.968602
vn -0.100137 0.227557 0.968602
vn -0.100137 0.227556 0.968602
vn -0.100137 0.227556 0.968602
vn -0.100137 0.227556 0.968602
vn 0.792968 -0.204086 0.574064
vn 0.792968 -0.204086 0.574064
vn 0.792969 -0.204086 0.574064
vn 0.834821 -0.110172 0.539384
vn 0.834821 -0.110172 0.539384
vn 0.834821 -0.110172 0.539384
vn 0.912277 0.035478 -0.408035
vn 0.912277 0.035478 -0.408035
vn 0.912277 0.035478 -0.408035
vn 0.659675 0.535156 -0.527671
vn 0.659675 0.535156 -0.527671
vn 0.659675 0.535156 -0.527671
vn 0.093227 0.422056 -0.901764
vn 0.093227 0.422056 -0.901764
vn 0.093227 0.422056 -0.901764
vn 0.238035 0.285767 -0.928265
vn 0.238035 0.285767 -0.928265
vn 0.238035 0.285767 -0.928265
vn -0.636314 0.030142 -0.770841
vn -0.636314 0.030142 -0.770841
vn -0.636314 0.030142 -0.770841
vn -0.697603 0.217342 -0.682725
vn -0.697603 0.217342 -0.682725
vn -0.697603 0.217342 -0.682725
vn -0.828175 0.460877 0.318934
vn -0.828175 0.460877 0.318934
vn -0.828175 0.460877 0.318934
vn -0.908057 0.333167 0.253834
vn -0.908057 0.333167 0.253834
vn -0.908057 0.333167 0.253834
vn -0.090907 0.467458 0.879329
vn -0.090907 0.467458 0.879329
vn -0.090907 0.467458 0.879329
vn -0.245256 0.158432 0.956425
vn -0.245256 0.158432 0.956425
vn -0.245256 0.158432 0.956425
vn 0.547587 0.758270 0.353800
vn 0.547587 0.758270 0.353800
vn 0.547587 0.758270 0.353800
vn 0.571733 0.600031 0.559539
vn 0.571733 0.600031 0.559539
vn 0.571733 0.600031 0.559539
vn 0.582582 0.665911 -0.466005
vn 0.582582 0.665911 -0.466005
vn 0.582582 0.665911 -0.466005
vn 0.939270 0.220987 -0.262559
vn 0.939270 0.220987 -0.262559
vn 0.939270 0.220987 -0.262559
vn 0.226238 0.412837 -0.882259
vn 0.226238 0.412837 -0.882259
vn 0.226238 0.412837 -0.882259
vn 0.389985 0.265530 -0.881706
vn 0.389985 0.265530 -0.881706
vn 0.389985 0.265530 -0.881706
vn -0.649542 0.417127 -0.635689
vn -0.649542 0.417127 -0.635689
vn -0.649542 0.417127 -0.635689
vn -0.575837 0.244052 -0.780289
vn -0.575837 0.244052 -0.780289
vn -0.575837 0.244052 -0.780289
vn -0.797192 0.561094 0.222843
vn -0.797192 0.561094 0.222843
vn -0.797192 0.561094 0.222843
vn -0.979651 0.164584 -0.114876
vn -0.979651 0.164584 -0.114876
vn -0.979651 0.164584 -0.114876
vn -0.225315 0.420931 0.878664
vn -0.225315 0.420931 0.878664
vn -0.225316 0.420931 0.878664
vn -0.287835 0.370148 0.883256
vn -0.287835 0.370148 0.883256
vn -0.287835 0.370148 0.883256
vn 0.643612 0.434750 0.629885
vn 0.643612 0.434750 0.629885
vn 0.643612 0.434750 0.629885
vn 0.642036 0.431456 0.633747
vn 0.642036 0.431456 0.633747
vn 0.642036 0.431456 0.633747
vn 0.865748 0.438078 -0.242007
vn 0.865748 0.438078 -0.242007
vn 0.865748 0.438078 -0.242007
vn 0.764503 0.550085 -0.336069
vn 0.764503 0.550085 -0.336069
vn 0.764503 0.550085 -0.336069
vn 0.390778 0.406948 -0.825643
vn 0.390778 0.406948 -0.825643
vn 0.390778 0.406948 -0.825643
vn 0.745363 0.028976 -0.666028
vn 0.745363 0.028976 -0.666028
vn 0.745363 0.028976 -0.666028
vn -0.458344 0.510757 -0.727357
vn -0.458344 0.510757 -0.727357
vn -0.458344 0.510757 -0.727357
vn -0.112352 0.202347 -0.972848
vn -0.112352 0.202347 -0.972848
vn -0.112352 0.202347 -0.972848
vn -0.909976 0.392793 -0.132885
vn -0.909976 0.392793 -0.132885
vn -0.909976 0.392793 -0.132885
vn -0.916508 0.210266 -0.340297
vn -0.916508 0.210266 -0.340297
vn -0.916508 0.210266 -0.340297
vn -0.262662 0.451521 0.852724
vn -0.262662 0.451521 0.852724
vn -0.262662 0.451521 0.852724
vn -0.739002 0.121400 0.662674
vn -0.739002 0.121400 0.662674
vn -0.739002 0.121400 0.662674
vn 0.644670 0.413517 0.642965
vn 0.644670 0.413517 0.642965
vn 0.644670 0.413517 0.642965
vn 0.584947 0.351005 0.731185
vn 0.584947 0.351005 0.731185
vn 0.584947 0.351005 0.731185
vn 0.913215 0.075768 -0.400371
vn 0.913215 0.075768 -0.400371
vn 0.913215 0.075768 -0.400371
vn -0.074003 0.482162 -0.872951
vn -0.074003 0.482162 -0.872951
vn -0.074003 0.482162 -0.872951
vn 0.000000 -1.000000 0.000000
vn 0.000000 -1.000000 0.000000
vn 0.000000 -1.000000 0.000000
vn 0.000000 -1.000000 0.000000
vn 0.000000 -1.000000 0.000000
vn 0.000000 -1.000000 0.000000
vn 0.000000 -1.000000 -0.000000
vn 0.000000 -1.000000 -0.000000
vn 0.000000 -1.000000 -0.000000
vn 0.000000 -1.000000 -0.000000
vn 0.000000 -1.000000 -0.000000
vn 0.000000 -1.000000 -0.000000
vn 0.733379 0.237695 -0.636911
vn 0.733379 0.237695 -0.636911
vn 0.733379 0.237695 -0.636911
vn -0.074263 0.298535 -0.951505
vn -0.074263 0.298535 -0.951505
vn -0.074263 0.298535 -0.951505
vn -0.835951 0.434647 -0.335063
vn -0.835951 0.434647 -0.335063
vn -0.835951 0.434647 -0.335063
vn -0.546232 0.464154 0.697274
vn -0.546232 0.464154 0.697274
vn -0.546232 0.464155 0.697274
vn 0.605568 0.226506 0.762878
vn 0.605568 0.226506 0.762878
vn 0.605568 0.226506 0.762878
vn 0.045508 0.017022 -0.998819
vn 0.045508 0.017022 -0.998819
vn 0.045508 0.017022 -0.998819
s off
g pCone1
usemtl initialShadingGroup
f 1/7/1 2/8/2 7/14/3
f 7/14/4 2/8/5 8/15/6
f 2/8/7 3/9/8 8/15/9
f 8/15/10 3/9/11 9/16/12
f 3/9/13 4/10/14 9/16/15
f 9/16/16 4/10/17 10/17/18
f 4/10/19 5/11/20 10/17/21
f 10/17/22 5/11/23 11/18/24
f 5/11/25 6/12/26 11/18/27
f 11/18/28 6/12/29 12/19/30
f 6/12/31 1/13/32 12/19/33
f 12/19/34 1/13/35 7/20/36
f 7/14/37 8/15/38 13/21/39
f 13/21/40 8/15/41 14/22/42
f 8/15/43 9/16/44 14/22/45
f 14/22/46 9/16/47 15/23/48
f 9/16/49 10/17/50 15/23/51
f 15/23/52 10/17/53 16/24/54
f 10/17/55 11/18/56 16/24/57
f 16/24/58 11/18/59 17/25/60
f 11/18/61 12/19/62 17/25/63
f 17/25/64 12/19/65 18/26/66
f 12/19/67 7/20/68 18/26/69
f 18/26/70 7/20/71 13/27/72
f 13/21/73 14/22/74 19/28/75
f 19/28/76 14/22/77 20/29/78
f 14/22/79 15/23/80 20/29/81
f 20/29/82 15/23/83 21/30/84
f 15/23/85 16/24/86 21/30/87
f 21/30/88 16/24/89 22/31/90
f 16/24/91 17/25/92 22/31/93
f 22/31/94 17/25/95 23/32/96
f 17/25/97 18/26/98 23/32/99
f 23/32/100 18/26/101 24/33/102
f 18/26/103 13/27/104 24/33/105
f 24/33/106 13/27/107 19/34/108
f 19/28/109 20/29/110 25/35/111
f 25/35/112 20/29/113 26/36/114
f 20/29/115 21/30/116 26/36/117
f 26/36/118 21/30/119 27/37/120
f 21/30/121 22/31/122 27/37/123
f 27/37/124 22/31/125 28/38/126
f 22/31/127 23/32/128 28/38/129
f 28/38/130 23/32/131 29/39/132
f 23/32/133 24/33/134 29/39/135
f 29/39/136 24/33/137 30/40/138
f 24/33/139 19/34/140 30/40/141
f 30/40/142 19/34/143 25/41/144
f 25/35/145 26/36/146 31/42/147
f 31/42/148 26/36/149 32/43/150
f 26/36/151 27/37/152 32/43/153
f 32/43/154 27/37/155 33/44/156
f 27/37/157 28/38/158 33/44/159
f 33/44/160 28/38/161 34/45/162
f 28/38/163 29/39/164 34/45/165
f 34/45/166 29/39/167 35/46/168
f 29/39/169 30/40/170 35/46/171
f 35/46/172 30/40/173 36/47/174
f 30/40/175 25/41/176 36/47/177
f 36/47/178 25/41/179 31/48/180
f 1/1/181 6/6/182 2/2/183
f 6/6/184 5/5/185 2/2/186
f 5/5/187 4/4/188 2/2/189
f 4/4/190 3/3/191 2/2/192
f 31/42/193 32/43/194 37/49/195
f 32/43/196 33/44/197 37/49/198
f 33/44/199 34/45/200 37/49/201
f 34/45/202 35/46/203 37/49/204
f 35/46/205 36/47/206 37/49/207
f 36/47/208 31/48/209 37/49/210
