# This file uses meters as units for non-parametric coordinates.

mtllib Rock.mtl
g default
v -0.954515 -14.992642 -63.157792
v -25.704000 -7.827689 -70.530086
v -22.799742 7.827687 -67.969378
v 2.399793 12.665465 -66.762968
v 13.226943 -0.000000 -72.118527
v -14.290268 59.930691 -8.232991
v -0.249495 49.332169 -19.550102
v -5.529371 36.866175 -40.371730
v -25.138786 33.148449 -40.819915
v -26.528606 46.998664 -18.828367
v 68.863261 14.516236 -58.583450
v 44.401016 14.516236 -94.608271
v 30.999131 27.181701 -83.388903
v 42.425158 35.009388 -62.767111
v 69.519194 27.181701 -39.439610
v -58.670595 6.580855 -28.300702
v -56.061316 18.964896 -40.214755
v -57.266258 8.246094 -65.102666
v -60.434505 -7.827692 -69.991998
v -60.805715 -12.247060 -43.814797
v -10.876645 -75.028335 1.623906
v -31.453524 -56.664247 -24.355444
v -32.818672 -37.804940 -52.916436
v -7.460573 -61.229328 -41.218551
v 2.194644 -83.497395 -15.429040
v 48.993453 -30.389258 -22.152407
v 31.223056 -54.599336 -22.792503
v 26.039972 -37.983620 -44.790940
v 38.170967 -14.516236 -68.362146
v 57.314310 -14.516239 -48.305470
v 45.741115 31.315450 27.704356
v 57.170951 36.153225 7.604675
v 30.076911 46.207580 -0.935688
v 7.876992 66.018823 16.286672
v 14.620239 57.085925 29.496353
v -21.696096 77.283393 29.388204
v -25.589348 78.715627 16.291828
v -35.724968 61.574228 7.956872
v -37.373553 50.291543 15.783751
v -28.417995 59.269874 28.982367
v -25.309533 1.433530 60.344404
v -34.548452 -2.701016 42.880360
v -31.830121 -25.749507 38.586855
v -21.106720 -34.582032 54.048267
v -17.115935 -22.668460 74.838866
v 6.310063 -36.153225 59.665913
v 2.987002 -46.176083 41.664156
v 16.954496 -57.235287 21.162388
v 32.696532 -41.049346 21.881931
v 25.509534 -31.360560 42.672550
v 71.871804 -7.827688 28.848385
v 78.530437 -12.665465 14.801641
v 92.170293 -0.000000 6.017070
v 94.690697 12.665465 15.117201
v 81.396411 7.827688 28.604426
v 22.311578 -5.472001 55.523609
v 26.579516 12.584293 46.764125
v 2.597884 39.703510 44.618227
v -8.032735 25.043846 50.828035
v 1.437064 -3.317181 70.425636
vt 0.987703 0.416675
vt 1.044048 0.446040
vt 1.044048 0.553960
vt 0.987703 0.583325
vt 0.213092 0.799197
vt 0.949304 0.823792
vt 0.963117 0.799197
vt 0.906747 0.671438
vt 1.112562 0.733907
vt 1.088104 0.715872
vt 1.132161 0.553960
vt 1.151751 0.589885
vt 0.811124 0.588113
vt 0.865084 0.411887
vt 0.838104 0.725398
vt 0.713092 0.799197
vt 0.230168 0.500000
vt 0.269462 0.671438
vt 1.151751 0.410115
vt 1.132161 0.446040
vt 1.088104 0.284128
vt 1.112562 0.266093
vt 0.949304 0.176208
vt 0.726904 0.176208
vt 0.213092 0.200803
vt 0.269462 0.328562
vt 1.031759 0.254763
vt 0.906747 0.328562
vt 0.811124 0.411887
vt 0.730168 0.500000
vt 0.769462 0.328562
vt 0.713092 0.200803
vt 0.588104 0.715872
vt 0.688506 0.583325
vt 0.463117 0.799197
vt 0.338104 0.725398
vt 0.487703 0.583325
vt 0.311124 0.588113
vt 0.311124 0.411887
vt 0.446040 0.500000
vt 0.338104 0.274602
vt 0.463117 0.200803
vt 0.487703 0.416675
vt 0.644449 0.254763
vt 0.688506 0.416675
vt 0.632161 0.553960
vt 0.544048 0.553960
vt 0.544048 0.446040
vt 1.031759 0.745237
vt 0.946040 0.500000
vt 0.865084 0.588113
vt 0.144449 0.745237
vt 0.188506 0.583325
vt 0.188506 0.416675
vt 0.144449 0.254763
vt 0.963117 0.200803
vt 0.838104 0.274602
vt 0.769462 0.671438
vt 0.644449 0.745237
vt 0.531759 0.745237
vt 0.406747 0.671438
vt 0.365084 0.588113
vt 0.365084 0.411887
vt 0.406747 0.328562
vt 0.531759 0.254763
vt 0.588104 0.284128
vt 0.632161 0.446040
vt 1.064130 0.809639
vt 1.079655 0.792741
vt 1.167759 0.531050
vt 1.159311 0.500000
vt 1.096553 0.207259
vt 0.726904 0.823792
vt 0.636052 0.823792
vt 0.636052 0.176208
vn 0.077968 -0.564773 -0.821555
vn 0.077968 -0.564773 -0.821555
vn 0.077968 -0.564773 -0.821555
vn -0.248399 -0.619527 -0.744637
vn -0.248399 -0.619527 -0.744637
vn -0.248399 -0.619527 -0.744637
vn 0.101277 -0.521746 -0.847068
vn 0.101277 -0.521746 -0.847068
vn 0.101277 -0.521746 -0.847068
vn 0.018360 -0.430722 -0.902298
vn 0.018360 -0.430722 -0.902298
vn 0.018360 -0.430722 -0.902298
vn -0.079492 0.175257 -0.981308
vn -0.079492 0.175257 -0.981308
vn -0.079492 0.175257 -0.981308
vn -0.014808 0.293654 -0.955797
vn -0.014808 0.293654 -0.955797
vn -0.014808 0.293654 -0.955797
vn -0.104684 0.717117 -0.689046
vn -0.104684 0.717117 -0.689046
vn -0.104684 0.717117 -0.689046
vn -0.121037 0.720708 -0.682591
vn -0.121037 0.720708 -0.682591
vn -0.121037 0.720708 -0.682591
vn -0.545358 -0.115131 -0.830258
vn -0.545358 -0.115131 -0.830258
vn -0.545358 -0.115131 -0.830258
vn -0.551167 0.144711 -0.821750
vn -0.551167 0.144711 -0.821750
vn -0.551167 0.144711 -0.821750
vn -0.205120 0.729092 -0.652955
vn -0.205120 0.729092 -0.652955
vn -0.205120 0.729092 -0.652955
vn -0.589151 0.607449 -0.532829
vn -0.589151 0.607449 -0.532829
vn -0.589151 0.607449 -0.532829
vn 0.330117 0.857861 -0.393824
vn 0.330117 0.857861 -0.393824
vn 0.330117 0.857861 -0.393824
vn 0.329970 0.802250 -0.497508
vn 0.329970 0.802250 -0.497508
vn 0.329970 0.802250 -0.497508
vn -0.288617 0.851958 -0.436884
vn -0.288617 0.851958 -0.436884
vn -0.288617 0.851958 -0.436884
vn -0.029366 0.939800 -0.340461
vn -0.029366 0.939800 -0.340461
vn -0.029366 0.939800 -0.340461
vn -0.366303 0.776743 -0.512340
vn -0.366303 0.776743 -0.512340
vn -0.366303 0.776743 -0.512340
vn -0.396633 0.849929 -0.346847
vn -0.396633 0.849929 -0.346847
vn -0.396633 0.849929 -0.346847
vn 0.907962 0.334503 -0.252415
vn 0.907962 0.334503 -0.252415
vn 0.907962 0.334503 -0.252415
vn 0.913323 0.101596 -0.394358
vn 0.913324 0.101596 -0.394358
vn 0.913323 0.101596 -0.394358
vn 0.682401 -0.565341 -0.463377
vn 0.682401 -0.565341 -0.463377
vn 0.682401 -0.565341 -0.463377
vn 0.638585 -0.469800 -0.609505
vn 0.638585 -0.469800 -0.609505
vn 0.638585 -0.469800 -0.609505
vn 0.345330 0.934389 -0.087549
vn 0.345330 0.934389 -0.087549
vn 0.345330 0.934389 -0.087549
vn 0.372027 0.923555 -0.092967
vn 0.372027 0.923555 -0.092967
vn 0.372027 0.923555 -0.092967
vn -0.943055 -0.141220 0.301172
vn -0.943055 -0.141220 0.301172
vn -0.943055 -0.141220 0.301172
vn -0.938368 -0.167039 0.302595
vn -0.938368 -0.167039 0.302595
vn -0.938368 -0.167039 0.302595
vn -0.941852 0.313875 0.119984
vn -0.941853 0.313875 0.119984
vn -0.941852 0.313875 0.119984
vn -0.944299 0.269244 0.189226
vn -0.944299 0.269244 0.189226
vn -0.944299 0.269244 0.189226
vn -0.806531 -0.580960 -0.109518
vn -0.806531 -0.580960 -0.109518
vn -0.806531 -0.580960 -0.109518
vn -0.508946 -0.729312 -0.457251
vn -0.508946 -0.729312 -0.457251
vn -0.508946 -0.729312 -0.457251
vn 0.166323 -0.826426 0.537919
vn 0.166323 -0.826426 0.537919
vn 0.166323 -0.826426 0.537919
vn 0.136439 -0.830068 0.540714
vn 0.136439 -0.830068 0.540714
vn 0.136439 -0.830068 0.540714
vn -0.804031 -0.535579 0.258244
vn -0.804031 -0.535579 0.258244
vn -0.804030 -0.535579 0.258244
vn -0.806464 -0.533746 0.254421
vn -0.806464 -0.533746 0.254421
vn -0.806464 -0.533746 0.254421
vn 0.425512 -0.600042 -0.677414
vn 0.425512 -0.600042 -0.677414
vn 0.425512 -0.600042 -0.677414
vn 0.406978 -0.680209 -0.609659
vn 0.406978 -0.680209 -0.609659
vn 0.406978 -0.680209 -0.609659
vn 0.681780 -0.701172 -0.208646
vn 0.681780 -0.701172 -0.208646
vn 0.681780 -0.701172 -0.208646
vn 0.604369 -0.776005 -0.180426
vn 0.604369 -0.776005 -0.180426
vn 0.604369 -0.776005 -0.180426
vn 0.783697 -0.581045 0.219558
vn 0.783697 -0.581045 0.219558
vn 0.783697 -0.581045 0.219558
vn 0.711532 -0.696231 0.094787
vn 0.711532 -0.696231 0.094787
vn 0.711532 -0.696231 0.094787
vn 0.397012 0.422791 0.814635
vn 0.397012 0.422791 0.814635
vn 0.397012 0.422791 0.814635
vn 0.406325 0.423386 0.809719
vn 0.406325 0.423386 0.809719
vn 0.406325 0.423386 0.809719
vn 0.415860 0.801654 0.429431
vn 0.415860 0.801654 0.429431
vn 0.415860 0.801654 0.429431
vn 0.411843 0.649678 0.638987
vn 0.411843 0.649678 0.638986
vn 0.411843 0.649678 0.638986
vn 0.458930 0.826926 0.324926
vn 0.458930 0.826926 0.324926
vn 0.458930 0.826926 0.324926
vn 0.354717 0.934968 -0.003201
vn 0.354717 0.934968 -0.003201
vn 0.354717 0.934968 -0.003201
vn -0.383972 0.122664 0.915161
vn -0.383972 0.122664 0.915161
vn -0.383972 0.122664 0.915161
vn -0.141494 0.471356 0.870518
vn -0.141494 0.471356 0.870518
vn -0.141494 0.471356 0.870519
vn -0.868557 0.199354 0.453726
vn -0.868557 0.199354 0.453726
vn -0.868557 0.199354 0.453725
vn -0.887015 0.171852 0.428568
vn -0.887015 0.171852 0.428568
vn -0.887015 0.171852 0.428568
vn -0.160811 0.467936 0.869009
vn -0.160811 0.467936 0.869008
vn -0.160811 0.467936 0.869009
vn -0.296928 0.473759 0.829088
vn -0.296928 0.473759 0.829088
vn -0.296928 0.473759 0.829088
vn -0.153564 -0.844351 0.513313
vn -0.153565 -0.844351 0.513313
vn -0.153564 -0.844351 0.513312
vn -0.151663 -0.851436 0.502051
vn -0.151663 -0.851436 0.502051
vn -0.151663 -0.851436 0.502051
vn 0.675490 -0.137159 0.724500
vn 0.675490 -0.137159 0.724500
vn 0.675490 -0.137159 0.724500
vn 0.527106 -0.324717 0.785314
vn 0.527106 -0.324717 0.785314
vn 0.527106 -0.324717 0.785314
vn 0.505792 -0.701667 0.501834
vn 0.505792 -0.701667 0.501834
vn 0.505792 -0.701667 0.501834
vn 0.513039 -0.707041 0.486707
vn 0.513039 -0.707041 0.486707
vn 0.513039 -0.707041 0.486707
vn 0.448149 -0.259318 0.855521
vn 0.448149 -0.259318 0.855521
vn 0.448149 -0.259318 0.855521
vn 0.321785 0.350606 0.879505
vn 0.321785 0.350606 0.879505
vn 0.321785 0.350606 0.879505
vn -0.610258 0.483990 -0.627168
vn -0.610258 0.483990 -0.627168
vn -0.610258 0.483990 -0.627168
vn -0.048005 0.728398 -0.683471
vn -0.048005 0.728398 -0.683471
vn -0.048005 0.728398 -0.683471
vn -0.013378 -0.504184 -0.863492
vn -0.013378 -0.504184 -0.863492
vn -0.013378 -0.504184 -0.863492
vn 0.214713 -0.443186 -0.870336
vn 0.214713 -0.443186 -0.870336
vn 0.214713 -0.443186 -0.870336
vn -0.248517 -0.619687 -0.744465
vn -0.248517 -0.619687 -0.744465
vn -0.248517 -0.619687 -0.744465
vn 0.185604 0.972729 -0.139103
vn 0.185604 0.972729 -0.139103
vn 0.185604 0.972729 -0.139103
vn -0.342710 0.770769 -0.537089
vn -0.342710 0.770769 -0.537089
vn -0.342710 0.770769 -0.537089
vn -0.855351 -0.466996 0.224252
vn -0.855351 -0.466996 0.224252
vn -0.855351 -0.466996 0.224252
vn 0.716415 -0.670636 0.192344
vn 0.716415 -0.670636 0.192344
vn 0.716415 -0.670636 0.192344
vn 0.799317 -0.456360 -0.390931
vn 0.799317 -0.456360 -0.390931
vn 0.799317 -0.456360 -0.390931
vn 0.533542 0.845508 -0.021197
vn 0.533542 0.845508 -0.021197
vn 0.533542 0.845508 -0.021197
vn 0.310381 0.818301 -0.483784
vn 0.310381 0.818301 -0.483784
vn 0.310381 0.818301 -0.483784
vn -0.935353 0.120231 0.332654
vn -0.935353 0.120231 0.332654
vn -0.935353 0.120231 0.332654
vn -0.074943 -0.796541 0.599921
vn -0.074943 -0.796541 0.599921
vn -0.074943 -0.796541 0.599921
vn 0.525160 -0.850924 -0.011637
vn 0.525160 -0.850924 -0.011637
vn 0.525160 -0.850924 -0.011637
vn 0.310836 0.502771 0.806599
vn 0.310836 0.502771 0.806599
vn 0.310836 0.502771 0.806599
vn 0.281932 0.511279 0.811854
vn 0.281932 0.511279 0.811854
vn 0.281932 0.511279 0.811854
vn -0.154520 0.464527 0.871974
vn -0.154520 0.464527 0.871974
vn -0.154520 0.464527 0.871974
vn 0.437548 -0.220702 0.871689
vn 0.437548 -0.220702 0.871689
vn 0.437548 -0.220702 0.871689
vn 0.429172 -0.358512 0.829024
vn 0.429172 -0.358512 0.829024
vn 0.429172 -0.358512 0.829024
vn 0.080396 -0.566300 -0.820269
vn 0.080396 -0.566300 -0.820269
vn 0.080396 -0.566300 -0.820269
vn -0.075149 0.174528 -0.981780
vn -0.075149 0.174528 -0.981780
vn -0.075149 0.174528 -0.981780
vn -0.026567 0.369971 -0.928663
vn -0.026567 0.369971 -0.928663
vn -0.026567 0.369971 -0.928663
vn -0.080146 0.676010 -0.732521
vn -0.080146 0.676010 -0.732521
vn -0.080146 0.676010 -0.732521
vn -0.090341 0.864405 -0.494614
vn -0.090341 0.864405 -0.494614
vn -0.090341 0.864405 -0.494614
vn -0.145719 0.832958 -0.533804
vn -0.145719 0.832958 -0.533804
vn -0.145719 0.832958 -0.533804
vn 0.644037 0.627664 -0.437326
vn 0.644037 0.627664 -0.437326
vn 0.644037 0.627664 -0.437326
vn 0.441351 0.809675 -0.386829
vn 0.441351 0.809675 -0.386829
vn 0.441351 0.809675 -0.386829
vn 0.633781 0.538288 -0.555488
vn 0.633781 0.538288 -0.555488
vn 0.633781 0.538288 -0.555488
vn -0.986276 0.156117 -0.053728
vn -0.986276 0.156117 -0.053728
vn -0.986276 0.156117 -0.053728
vn -0.988182 0.152255 -0.017731
vn -0.988182 0.152255 -0.017731
vn -0.988182 0.152255 -0.017731
vn -0.981982 0.188129 0.017836
vn -0.981982 0.188129 0.017836
vn -0.981982 0.188129 0.017836
vn -0.609452 -0.789250 -0.075185
vn -0.609452 -0.789250 -0.075185
vn -0.609452 -0.789250 -0.075185
vn -0.470517 -0.746519 -0.470450
vn -0.470517 -0.746519 -0.470450
vn -0.470517 -0.746519 -0.470450
vn -0.474066 -0.746426 -0.467022
vn -0.474066 -0.746427 -0.467022
vn -0.474066 -0.746427 -0.467022
vn 0.803318 -0.586980 -0.100671
vn 0.803318 -0.586980 -0.100671
vn 0.803318 -0.586980 -0.100671
vn 0.432707 -0.667422 -0.606063
vn 0.432707 -0.667422 -0.606063
vn 0.432707 -0.667422 -0.606063
vn 0.494563 -0.729784 -0.472042
vn 0.494562 -0.729784 -0.472042
vn 0.494562 -0.729784 -0.472042
vn 0.574091 0.659542 0.485206
vn 0.574090 0.659542 0.485206
vn 0.574090 0.659542 0.485206
vn 0.381450 0.914736 -0.133243
vn 0.381450 0.914736 -0.133243
vn 0.381450 0.914736 -0.133243
vn 0.708021 0.697530 0.110267
vn 0.708021 0.697530 0.110267
vn 0.708021 0.697530 0.110267
vn -0.895368 0.327311 0.301967
vn -0.895368 0.327311 0.301967
vn -0.895368 0.327311 0.301967
vn -0.872371 0.349771 0.341509
vn -0.872371 0.349771 0.341509
vn -0.872371 0.349771 0.341509
vn -0.866973 0.363314 0.341117
vn -0.866973 0.363314 0.341117
vn -0.866973 0.363314 0.341117
vn -0.882150 -0.016842 0.470667
vn -0.882150 -0.016842 0.470667
vn -0.882150 -0.016842 0.470667
vn -0.906373 -0.178249 0.383034
vn -0.906373 -0.178249 0.383033
vn -0.906373 -0.178249 0.383034
vn -0.848637 -0.372006 0.376067
vn -0.848637 -0.372006 0.376067
vn -0.848637 -0.372006 0.376067
vn 0.504516 -0.790585 0.347043
vn 0.504516 -0.790585 0.347043
vn 0.504516 -0.790585 0.347043
vn 0.405759 -0.659878 0.632393
vn 0.405759 -0.659878 0.632393
vn 0.405759 -0.659878 0.632393
vn 0.610469 -0.615866 0.498033
vn 0.610469 -0.615866 0.498033
vn 0.610469 -0.615866 0.498033
vn 0.741320 -0.443159 0.504038
vn 0.741320 -0.443159 0.504038
vn 0.741320 -0.443159 0.504038
vn 0.738886 -0.444455 0.506466
vn 0.738886 -0.444455 0.506466
vn 0.738886 -0.444455 0.506466
vn 0.698640 -0.503941 0.507884
vn 0.698640 -0.503941 0.507884
vn 0.698640 -0.503941 0.507884
vn 0.580306 0.240322 0.778132
vn 0.580306 0.240322 0.778132
vn 0.580306 0.240322 0.778132
vn 0.442446 0.452522 0.774251
vn 0.442446 0.452522 0.774251
vn 0.442446 0.452522 0.774251
vn -0.211010 0.507020 0.835707
vn -0.211010 0.507020 0.835707
vn -0.211010 0.507020 0.835706
s off
g pPlatonic1
usemtl initialShadingGroup
f 1/1/1 5/50/2 28/28/3
f 28/28/4 5/50/5 29/14/6
f 2/2/7 1/1/8 23/21/9
f 23/21/10 1/1/11 24/27/12
f 3/3/13 2/2/14 18/11/15
f 18/11/16 2/2/17 19/20/18
f 4/4/19 3/3/20 8/49/21
f 8/49/22 3/3/23 9/10/24
f 5/50/25 4/4/26 12/51/27
f 12/51/28 4/4/29 13/8/30
f 6/5/31 10/52/32 37/36/33
f 37/36/34 10/52/35 38/18/36
f 7/7/37 6/6/38 33/16/39
f 33/16/40 6/6/41 34/73/42
f 8/49/43 7/7/44 13/8/45
f 13/8/46 7/7/47 14/15/48
f 10/9/49 9/10/50 17/12/51
f 17/12/52 9/10/53 18/11/54
f 11/13/55 15/58/56 53/30/57
f 53/30/58 15/58/59 54/34/60
f 12/51/61 11/13/62 29/14/63
f 29/14/64 11/13/65 30/29/66
f 15/58/67 14/15/68 32/59/69
f 32/59/70 14/15/71 33/16/72
f 16/17/73 20/54/74 42/39/75
f 42/39/76 20/54/77 43/26/78
f 17/53/79 16/17/80 38/18/81
f 38/18/82 16/17/83 39/38/84
f 20/19/85 19/20/86 22/22/87
f 22/22/88 19/20/89 23/21/90
f 21/23/91 25/56/92 47/24/93
f 47/24/94 25/56/95 48/32/96
f 22/55/97 21/25/98 43/26/99
f 43/26/100 21/25/101 44/41/102
f 25/56/103 24/27/104 27/57/105
f 27/57/106 24/27/107 28/28/108
f 26/31/109 30/29/110 52/45/111
f 52/45/112 30/29/113 53/30/114
f 27/57/115 26/31/116 48/32/117
f 48/32/118 26/31/119 49/44/120
f 31/33/121 35/60/122 57/47/123
f 57/47/124 35/60/125 58/37/126
f 32/59/127 31/33/128 54/34/129
f 54/34/130 31/33/131 55/46/132
f 35/60/133 34/35/134 36/61/135
f 36/61/136 34/35/137 37/36/138
f 36/61/139 40/62/140 58/37/141
f 58/37/142 40/62/143 59/40/144
f 40/62/145 39/38/146 41/63/147
f 41/63/148 39/38/149 42/39/150
f 41/63/151 45/64/152 59/40/153
f 59/40/154 45/64/155 60/43/156
f 45/64/157 44/41/158 46/65/159
f 46/65/160 44/41/161 47/42/162
f 46/65/163 50/66/164 60/43/165
f 60/43/166 50/66/167 56/48/168
f 50/66/169 49/44/170 51/67/171
f 51/67/172 49/44/173 52/45/174
f 51/67/175 55/46/176 56/48/177
f 56/48/178 55/46/179 57/47/180
f 4/4/181 8/49/182 13/8/183
f 3/3/184 18/11/185 9/10/186
f 2/2/187 23/21/188 19/20/189
f 1/1/190 28/28/191 24/27/192
f 5/50/193 12/51/194 29/14/195
f 14/15/196 7/7/197 33/16/198
f 10/52/199 17/53/200 38/18/201
f 20/54/202 22/55/203 43/26/204
f 25/56/205 27/57/206 48/32/207
f 30/29/208 11/13/209 53/30/210
f 15/58/211 32/59/212 54/34/213
f 6/5/214 37/36/215 34/35/216
f 16/17/217 42/39/218 39/38/219
f 21/25/220 47/42/221 44/41/222
f 26/31/223 52/45/224 49/44/225
f 55/46/226 31/33/227 57/47/228
f 35/60/229 36/61/230 58/37/231
f 40/62/232 41/63/233 59/40/234
f 45/64/235 46/65/236 60/43/237
f 50/66/238 51/67/239 56/48/240
f 1/1/241 2/2/242 5/50/243
f 2/2/244 3/3/245 5/50/246
f 3/3/247 4/4/248 5/50/249
f 6/68/250 7/7/251 10/69/252
f 7/7/253 8/49/254 10/69/255
f 8/49/256 9/10/257 10/69/258
f 11/13/259 12/51/260 15/58/261
f 12/51/262 13/8/263 15/58/264
f 13/8/265 14/15/266 15/58/267
f 16/70/268 17/12/269 20/71/270
f 17/12/271 18/11/272 20/71/273
f 18/11/274 19/20/275 20/71/276
f 21/72/277 22/22/278 25/56/279
f 22/22/280 23/21/281 25/56/282
f 23/21/283 24/27/284 25/56/285
f 26/31/286 27/57/287 30/29/288
f 27/57/289 28/28/290 30/29/291
f 28/28/292 29/14/293 30/29/294
f 31/33/295 32/59/296 35/74/297
f 32/59/298 33/16/299 35/74/300
f 33/16/301 34/73/302 35/74/303
f 36/61/304 37/36/305 40/62/306
f 37/36/307 38/18/308 40/62/309
f 38/18/310 39/38/311 40/62/312
f 41/63/313 42/39/314 45/64/315
f 42/39/316 43/26/317 45/64/318
f 43/26/319 44/41/320 45/64/321
f 46/75/322 47/24/323 50/66/324
f 47/24/325 48/32/326 50/66/327
f 48/32/328 49/44/329 50/66/330
f 51/67/331 52/45/332 55/46/333
f 52/45/334 53/30/335 55/46/336
f 53/30/337 54/34/338 55/46/339
f 56/48/340 57/47/341 60/43/342
f 57/47/343 58/37/344 60/43/345
f 58/37/346 59/40/347 60/43/348
