# This file uses centimeters as units for non-parametric coordinates.

mtllib Sapling.mtl
g default
v 0.313796 0.000000 -0.313796
v 0.000000 0.000000 -0.443774
v -0.313796 0.000000 -0.313796
v -0.443774 0.000000 0.000000
v -0.313796 0.000000 0.313796
v 0.000000 0.000000 0.443774
v 0.313796 0.000000 0.313796
v 0.443774 0.000000 0.000000
v 0.008158 6.802855 -0.100870
v -0.009790 6.803083 -0.108282
v -0.027725 6.802648 -0.100846
v -0.035139 6.801805 -0.082918
v -0.027692 6.801048 -0.064999
v -0.009744 6.800819 -0.057587
v 0.008191 6.801254 -0.065023
v 0.015605 6.802098 -0.082951
v 0.000000 0.000000 0.000000
v -0.009767 6.801951 -0.082934
v -0.026627 4.870709 -0.332692
v -0.189880 4.872785 -0.400113
v -0.353009 4.868829 -0.332475
v -0.420455 4.861160 -0.169399
v -0.352709 4.854269 -0.006412
v -0.189456 4.852193 0.061009
v -0.026327 4.856148 -0.006629
v 0.041119 4.863818 -0.169705
v 0.398571 1.558477 -0.060111
v 0.133205 1.549925 -0.169696
v -0.132162 1.558477 -0.060111
v -0.242081 1.579121 0.204452
v -0.132162 1.599765 0.469015
v 0.133205 1.608316 0.578600
v 0.398572 1.599765 0.469015
v 0.508490 1.579121 0.204452
v 0.252696 1.980135 -0.164790
v 0.357365 2.051680 0.077566
v 0.252696 2.123224 0.319922
v 0.000000 2.152859 0.420309
v -0.252696 2.123224 0.319922
v -0.357365 2.051680 0.077566
v -0.252696 1.980135 -0.164790
v 0.000000 1.950501 -0.265177
v -0.014270 3.579631 -0.430327
v 0.070038 3.571056 -0.227493
v -0.013897 3.561511 -0.024548
v -0.216908 3.556589 0.059627
v -0.420074 3.559172 -0.024278
v -0.504382 3.567748 -0.227112
v -0.420448 3.577293 -0.430057
v -0.217436 3.582214 -0.514231
vt 0.610485 0.045765
vt 0.500000 0.000000
vt 0.389515 0.045765
vt 0.343750 0.156250
vt 0.389515 0.266735
vt 0.500000 0.312500
vt 0.610485 0.266735
vt 0.656250 0.156250
vt 0.375000 0.312500
vt 0.406250 0.312500
vt 0.437500 0.312500
vt 0.468750 0.312500
vt 0.500000 0.312500
vt 0.531250 0.312500
vt 0.562500 0.312500
vt 0.593750 0.312500
vt 0.625000 0.312500
vt 0.375000 0.688440
vt 0.406250 0.688440
vt 0.437500 0.688440
vt 0.468750 0.688440
vt 0.500000 0.688440
vt 0.531250 0.688440
vt 0.562500 0.688440
vt 0.593750 0.688440
vt 0.625000 0.688440
vt 0.610485 0.733265
vt 0.500000 0.687500
vt 0.389515 0.733265
vt 0.343750 0.843750
vt 0.389515 0.954235
vt 0.500000 1.000000
vt 0.610485 0.954235
vt 0.656250 0.843750
vt 0.500000 0.150000
vt 0.500000 0.837500
vt 0.625000 0.581537
vt 0.375000 0.581537
vt 0.406250 0.581537
vt 0.437500 0.581537
vt 0.468750 0.581537
vt 0.500000 0.581537
vt 0.531250 0.581537
vt 0.562500 0.581537
vt 0.593750 0.581537
vt 0.625000 0.399014
vt 0.375000 0.399014
vt 0.406250 0.399014
vt 0.437500 0.399014
vt 0.468750 0.399014
vt 0.500000 0.399014
vt 0.531250 0.399014
vt 0.562500 0.399014
vt 0.593750 0.399014
vt 0.625000 0.421650
vt 0.375000 0.421650
vt 0.593750 0.421650
vt 0.562500 0.421650
vt 0.531250 0.421650
vt 0.500000 0.421650
vt 0.468750 0.421650
vt 0.437500 0.421650
vt 0.406250 0.421650
vt 0.625000 0.510263
vt 0.375000 0.510263
vt 0.593750 0.510263
vt 0.562500 0.510263
vt 0.531250 0.510263
vt 0.500000 0.510263
vt 0.468750 0.510263
vt 0.437500 0.510263
vt 0.406250 0.510263
vn 0.380774 0.103392 -0.918869
vn 0.380774 0.103392 -0.918869
vn 0.380774 0.103392 -0.918869
vn 0.380790 0.103391 -0.918863
vn 0.380790 0.103391 -0.918863
vn 0.380790 0.103391 -0.918863
vn -0.380805 0.172857 -0.908354
vn -0.380805 0.172857 -0.908355
vn -0.380805 0.172857 -0.908354
vn -0.380817 0.172857 -0.908349
vn -0.380817 0.172857 -0.908349
vn -0.380817 0.172857 -0.908349
vn -0.909241 0.196874 -0.366772
vn -0.909241 0.196874 -0.366772
vn -0.909241 0.196874 -0.366772
vn -0.909236 0.196874 -0.366785
vn -0.909236 0.196874 -0.366784
vn -0.909236 0.196874 -0.366784
vn -0.908563 0.163258 0.384525
vn -0.908563 0.163258 0.384525
vn -0.908563 0.163258 0.384525
vn -0.908555 0.163257 0.384545
vn -0.908555 0.163257 0.384545
vn -0.908555 0.163257 0.384545
vn -0.379124 0.091009 0.920860
vn -0.379124 0.091009 0.920860
vn -0.379124 0.091009 0.920860
vn -0.379139 0.091010 0.920853
vn -0.379139 0.091010 0.920853
vn -0.379139 0.091010 0.920853
vn 0.382477 0.020944 0.923727
vn 0.382477 0.020944 0.923727
vn 0.382477 0.020944 0.923727
vn 0.382490 0.020944 0.923722
vn 0.382490 0.020944 0.923722
vn 0.382490 0.020944 0.923722
vn 0.924164 -0.004933 0.381965
vn 0.924164 -0.004933 0.381965
vn 0.924164 -0.004933 0.381965
vn 0.924157 -0.004932 0.381982
vn 0.924157 -0.004932 0.381982
vn 0.924157 -0.004932 0.381982
vn 0.923458 0.029279 -0.382580
vn 0.923458 0.029279 -0.382580
vn 0.923458 0.029279 -0.382580
vn 0.923452 0.029280 -0.382596
vn 0.923452 0.029280 -0.382596
vn 0.923452 0.029280 -0.382596
vn 0.000000 -1.000000 0.000000
vn 0.000000 -1.000000 0.000000
vn 0.000000 -1.000000 0.000000
vn 0.000000 -1.000000 0.000000
vn 0.000000 -1.000000 0.000000
vn 0.000000 -1.000000 0.000000
vn 0.000000 -1.000000 0.000000
vn 0.000000 -1.000000 0.000000
vn 0.000000 -1.000000 0.000000
vn 0.000000 -1.000000 0.000000
vn 0.000000 -1.000000 0.000000
vn 0.000000 -1.000000 0.000000
vn 0.000000 -1.000000 0.000000
vn 0.000000 -1.000000 0.000000
vn 0.000000 -1.000000 0.000000
vn 0.000000 -1.000000 0.000000
vn 0.000000 -1.000000 0.000000
vn 0.000000 -1.000000 0.000000
vn 0.000000 -1.000000 0.000000
vn 0.000000 -1.000000 0.000000
vn 0.000000 -1.000000 0.000000
vn 0.000000 -1.000000 0.000000
vn 0.000000 -1.000000 0.000000
vn 0.000000 -1.000000 0.000000
vn -0.005732 0.998987 0.044629
vn -0.005732 0.998987 0.044629
vn -0.005732 0.998987 0.044629
vn -0.005719 0.998987 0.044627
vn -0.005719 0.998987 0.044627
vn -0.005719 0.998987 0.044627
vn -0.005708 0.998988 0.044606
vn -0.005708 0.998988 0.044606
vn -0.005708 0.998988 0.044606
vn -0.005708 0.998988 0.044605
vn -0.005708 0.998988 0.044605
vn -0.005708 0.998988 0.044605
vn -0.005715 0.998987 0.044631
vn -0.005715 0.998987 0.044631
vn -0.005715 0.998987 0.044631
vn -0.005737 0.998988 0.044616
vn -0.005737 0.998988 0.044616
vn -0.005737 0.998988 0.044616
vn -0.005738 0.998989 0.044581
vn -0.005738 0.998989 0.044581
vn -0.005738 0.998989 0.044581
vn -0.005738 0.998986 0.044655
vn -0.005738 0.998986 0.044655
vn -0.005738 0.998986 0.044655
vn 0.382573 -0.095782 -0.918947
vn 0.382573 -0.095782 -0.918947
vn 0.382573 -0.095782 -0.918947
vn 0.377080 -0.094228 -0.921375
vn 0.377080 -0.094228 -0.921375
vn 0.377080 -0.094228 -0.921375
vn -0.369385 -0.329907 -0.868744
vn -0.369385 -0.329907 -0.868744
vn -0.369385 -0.329907 -0.868744
vn -0.381856 -0.324036 -0.865556
vn -0.381855 -0.324036 -0.865556
vn -0.381855 -0.324036 -0.865556
vn -0.886647 -0.308748 -0.344285
vn -0.886647 -0.308748 -0.344285
vn -0.886647 -0.308748 -0.344285
vn -0.898405 -0.329026 -0.290877
vn -0.898406 -0.329026 -0.290877
vn -0.898405 -0.329026 -0.290877
vn -0.916014 -0.100298 0.388405
vn -0.916014 -0.100298 0.388405
vn -0.916014 -0.100298 0.388405
vn -0.900918 -0.106843 0.420632
vn -0.900918 -0.106843 0.420632
vn -0.900918 -0.106843 0.420632
vn -0.380773 0.171008 0.908718
vn -0.380772 0.171008 0.908718
vn -0.380772 0.171008 0.908718
vn -0.381018 0.171057 0.908606
vn -0.381018 0.171057 0.908606
vn -0.381018 0.171057 0.908606
vn 0.367388 0.348040 0.862493
vn 0.367388 0.348040 0.862493
vn 0.367388 0.348040 0.862493
vn 0.381274 0.342833 0.858543
vn 0.381274 0.342833 0.858543
vn 0.381274 0.342833 0.858543
vn 0.877331 0.340738 0.337918
vn 0.877331 0.340738 0.337918
vn 0.877331 0.340738 0.337918
vn 0.890588 0.359585 0.278480
vn 0.890589 0.359585 0.278480
vn 0.890588 0.359585 0.278480
vn 0.902514 0.184085 -0.389334
vn 0.902514 0.184085 -0.389334
vn 0.902514 0.184085 -0.389334
vn 0.878061 0.195313 -0.436878
vn 0.878061 0.195313 -0.436878
vn 0.878061 0.195313 -0.436878
vn 0.379467 0.129387 -0.916113
vn 0.379467 0.129387 -0.916113
vn 0.379467 0.129387 -0.916113
vn 0.374946 0.129038 -0.918022
vn 0.374946 0.129038 -0.918022
vn 0.374946 0.129038 -0.918022
vn -0.375610 0.191383 -0.906802
vn -0.375610 0.191383 -0.906802
vn -0.375610 0.191383 -0.906802
vn -0.369247 0.192506 -0.909174
vn -0.369247 0.192506 -0.909174
vn -0.369247 0.192506 -0.909174
vn -0.910817 0.167563 -0.377273
vn -0.910817 0.167563 -0.377273
vn -0.910817 0.167563 -0.377273
vn -0.905976 0.166129 -0.389371
vn -0.905976 0.166129 -0.389371
vn -0.905976 0.166129 -0.389371
vn -0.921722 0.068296 0.381790
vn -0.921722 0.068296 0.381790
vn -0.921722 0.068296 0.381790
vn -0.923195 0.068118 0.378247
vn -0.923195 0.068118 0.378247
vn -0.923195 0.068118 0.378247
vn -0.382276 -0.046142 0.922896
vn -0.382276 -0.046142 0.922896
vn -0.382276 -0.046142 0.922896
vn -0.380023 -0.045971 0.923834
vn -0.380023 -0.045971 0.923834
vn -0.380023 -0.045971 0.923834
vn 0.380424 -0.108500 0.918426
vn 0.380424 -0.108500 0.918426
vn 0.380424 -0.108500 0.918426
vn 0.376401 -0.109210 0.919998
vn 0.376401 -0.109210 0.919997
vn 0.376401 -0.109210 0.919997
vn 0.920370 -0.087077 0.381230
vn 0.920370 -0.087077 0.381230
vn 0.920370 -0.087077 0.381230
vn 0.917622 -0.086271 0.387978
vn 0.917622 -0.086271 0.387978
vn 0.917622 -0.086271 0.387978
vn 0.923813 0.012036 -0.382656
vn 0.923813 0.012036 -0.382656
vn 0.923813 0.012036 -0.382656
vn 0.923072 0.011945 -0.384443
vn 0.923072 0.011945 -0.384443
vn 0.923072 0.011945 -0.384443
vn 0.904864 0.087470 -0.416618
vn 0.904864 0.087470 -0.416618
vn 0.904864 0.087470 -0.416618
vn 0.920949 0.090801 -0.378956
vn 0.920949 0.090801 -0.378956
vn 0.920949 0.090801 -0.378956
vn 0.914076 0.246545 0.321994
vn 0.914076 0.246545 0.321994
vn 0.914076 0.246545 0.321994
vn 0.891795 0.245013 0.380355
vn 0.891795 0.245013 0.380355
vn 0.891795 0.245013 0.380355
vn 0.382598 0.281660 0.879935
vn 0.382598 0.281660 0.879935
vn 0.382598 0.281660 0.879935
vn 0.361351 0.284034 0.888116
vn 0.361351 0.284034 0.888116
vn 0.361351 0.284034 0.888116
vn -0.381137 0.174392 0.907922
vn -0.381137 0.174392 0.907922
vn -0.381137 0.174392 0.907922
vn -0.373942 0.174743 0.910842
vn -0.373942 0.174743 0.910842
vn -0.373942 0.174743 0.910842
vn -0.916779 -0.011164 0.399238
vn -0.916779 -0.011164 0.399238
vn -0.916779 -0.011164 0.399238
vn -0.923524 -0.012519 0.383336
vn -0.923524 -0.012519 0.383336
vn -0.923524 -0.012519 0.383336
vn -0.922529 -0.160036 -0.351182
vn -0.922529 -0.160036 -0.351182
vn -0.922529 -0.160036 -0.351182
vn -0.909623 -0.159266 -0.383694
vn -0.909623 -0.159266 -0.383694
vn -0.909623 -0.159266 -0.383694
vn -0.381607 -0.188955 -0.904805
vn -0.381607 -0.188955 -0.904805
vn -0.381607 -0.188955 -0.904805
vn -0.372100 -0.189979 -0.908542
vn -0.372100 -0.189979 -0.908542
vn -0.372100 -0.189979 -0.908542
vn 0.376808 -0.090154 -0.921894
vn 0.376808 -0.090154 -0.921894
vn 0.376808 -0.090154 -0.921893
vn 0.379185 -0.090036 -0.920930
vn 0.379185 -0.090036 -0.920930
vn 0.379185 -0.090036 -0.920930
vn 0.923316 0.037739 -0.382183
vn 0.923316 0.037739 -0.382183
vn 0.923316 0.037739 -0.382183
vn 0.923316 0.037739 -0.382182
vn 0.923316 0.037739 -0.382182
vn 0.923316 0.037739 -0.382182
vn 0.924020 0.003580 0.382328
vn 0.924020 0.003580 0.382327
vn 0.924020 0.003580 0.382327
vn 0.924021 0.003580 0.382326
vn 0.924021 0.003580 0.382326
vn 0.924021 0.003580 0.382326
vn 0.383183 -0.009104 0.923628
vn 0.383183 -0.009104 0.923628
vn 0.383183 -0.009104 0.923628
vn 0.383180 -0.009105 0.923629
vn 0.383180 -0.009105 0.923629
vn 0.383180 -0.009105 0.923629
vn -0.381627 0.007100 0.924289
vn -0.381627 0.007100 0.924289
vn -0.381627 0.007100 0.924289
vn -0.381625 0.007100 0.924290
vn -0.381625 0.007100 0.924290
vn -0.381625 0.007100 0.924290
vn -0.921929 0.042644 0.385005
vn -0.921929 0.042644 0.385005
vn -0.921929 0.042644 0.385005
vn -0.921929 0.042643 0.385004
vn -0.921929 0.042643 0.385004
vn -0.921929 0.042643 0.385004
vn -0.922630 0.076734 -0.377975
vn -0.922630 0.076734 -0.377975
vn -0.922630 0.076734 -0.377975
vn -0.922631 0.076734 -0.377974
vn -0.922631 0.076734 -0.377974
vn -0.922631 0.076734 -0.377974
vn -0.383324 0.089471 -0.919270
vn -0.383324 0.089471 -0.919270
vn -0.383324 0.089471 -0.919270
vn -0.383324 0.089471 -0.919270
vn -0.383324 0.089471 -0.919270
vn -0.383324 0.089471 -0.919270
vn 0.381482 0.073335 -0.921463
vn 0.381482 0.073335 -0.921463
vn 0.381481 0.073335 -0.921463
vn 0.381482 0.073335 -0.921463
vn 0.381482 0.073335 -0.921463
vn 0.381482 0.073335 -0.921463
s off
g pCylinder1
usemtl initialShadingGroup
f 9/18/1 19/38/2 10/19/3
f 19/38/4 20/39/5 10/19/6
f 10/19/7 20/39/8 11/20/9
f 20/39/10 21/40/11 11/20/12
f 12/21/13 11/20/14 22/41/15
f 21/40/16 22/41/17 11/20/18
f 13/22/19 12/21/20 23/42/21
f 22/41/22 23/42/23 12/21/24
f 14/23/25 13/22/26 24/43/27
f 23/42/28 24/43/29 13/22/30
f 15/24/31 14/23/32 25/44/33
f 24/43/34 25/44/35 14/23/36
f 15/24/37 25/44/38 16/25/39
f 25/44/40 26/45/41 16/25/42
f 16/25/43 26/45/44 9/26/45
f 26/45/46 19/37/47 9/26/48
f 2/2/49 1/1/50 17/35/51
f 3/3/52 2/2/53 17/35/54
f 4/4/55 3/3/56 17/35/57
f 5/5/58 4/4/59 17/35/60
f 6/6/61 5/5/62 17/35/63
f 7/7/64 6/6/65 17/35/66
f 8/8/67 7/7/68 17/35/69
f 1/1/70 8/8/71 17/35/72
f 9/33/73 10/32/74 18/36/75
f 10/32/76 11/31/77 18/36/78
f 11/31/79 12/30/80 18/36/81
f 12/30/82 13/29/83 18/36/84
f 13/29/85 14/28/86 18/36/87
f 14/28/88 15/27/89 18/36/90
f 15/27/91 16/34/92 18/36/93
f 16/34/94 9/33/95 18/36/96
f 27/47/97 28/48/98 35/56/99
f 35/56/100 28/48/101 42/63/102
f 28/48/103 29/49/104 42/63/105
f 42/63/106 29/49/107 41/62/108
f 30/50/109 40/61/110 29/49/111
f 29/49/112 40/61/113 41/62/114
f 31/51/115 39/60/116 30/50/117
f 30/50/118 39/60/119 40/61/120
f 32/52/121 38/59/122 31/51/123
f 31/51/124 38/59/125 39/60/126
f 33/53/127 37/58/128 32/52/129
f 32/52/130 37/58/131 38/59/132
f 33/53/133 34/54/134 37/58/135
f 37/58/136 34/54/137 36/57/138
f 34/54/139 27/46/140 36/57/141
f 36/57/142 27/46/143 35/55/144
f 2/10/145 28/48/146 1/9/147
f 1/9/148 28/48/149 27/47/150
f 3/11/151 29/49/152 2/10/153
f 2/10/154 29/49/155 28/48/156
f 3/11/157 4/12/158 29/49/159
f 29/49/160 4/12/161 30/50/162
f 4/12/163 5/13/164 30/50/165
f 30/50/166 5/13/167 31/51/168
f 5/13/169 6/14/170 31/51/171
f 31/51/172 6/14/173 32/52/174
f 6/14/175 7/15/176 32/52/177
f 32/52/178 7/15/179 33/53/180
f 8/16/181 34/54/182 7/15/183
f 7/15/184 34/54/185 33/53/186
f 1/17/187 27/46/188 8/16/189
f 8/16/190 27/46/191 34/54/192
f 36/57/193 35/55/194 44/66/195
f 44/66/196 35/55/197 43/64/198
f 37/58/199 36/57/200 45/67/201
f 45/67/202 36/57/203 44/66/204
f 37/58/205 45/67/206 38/59/207
f 38/59/208 45/67/209 46/68/210
f 38/59/211 46/68/212 39/60/213
f 39/60/214 46/68/215 47/69/216
f 39/60/217 47/69/218 40/61/219
f 40/61/220 47/69/221 48/70/222
f 40/61/223 48/70/224 41/62/225
f 41/62/226 48/70/227 49/71/228
f 42/63/229 41/62/230 50/72/231
f 50/72/232 41/62/233 49/71/234
f 35/56/235 42/63/236 43/65/237
f 43/65/238 42/63/239 50/72/240
f 43/64/241 19/37/242 44/66/243
f 44/66/244 19/37/245 26/45/246
f 44/66/247 26/45/248 45/67/249
f 45/67/250 26/45/251 25/44/252
f 46/68/253 45/67/254 24/43/255
f 24/43/256 45/67/257 25/44/258
f 47/69/259 46/68/260 23/42/261
f 23/42/262 46/68/263 24/43/264
f 48/70/265 47/69/266 22/41/267
f 22/41/268 47/69/269 23/42/270
f 49/71/271 48/70/272 21/40/273
f 21/40/274 48/70/275 22/41/276
f 49/71/277 21/40/278 50/72/279
f 50/72/280 21/40/281 20/39/282
f 50/72/283 20/39/284 43/65/285
f 43/65/286 20/39/287 19/38/288
g default
v 0.939962 8.255356 0.653971
v 1.135593 8.255356 -0.147086
v -0.333886 6.572839 0.342876
v -0.138254 6.572839 -0.458180
vt 0.000000 0.000000
vt 1.000000 0.000000
vt 0.000000 1.000000
vt 1.000000 1.000000
vn 0.766229 -0.614717 0.187126
vn 0.766229 -0.614717 0.187126
vn 0.766229 -0.614717 0.187126
vn 0.766229 -0.614717 0.187126
s off
g pPlane2 Double_Sided_Image_Plane
usemtl initialShadingGroup
f 51/73/289 53/75/290 54/76/291 52/74/292
g default
v 0.939962 8.255356 0.653971
v 1.135593 8.255356 -0.147086
v -0.333886 6.572839 0.342876
v -0.138254 6.572839 -0.458180
vt 0.000000 0.000000
vt 1.000000 0.000000
vt 0.000000 1.000000
vt 1.000000 1.000000
vn -0.766229 0.614717 -0.187126
vn -0.766229 0.614717 -0.187126
vn -0.766229 0.614717 -0.187126
vn -0.766229 0.614717 -0.187126
s off
g Double_Sided_Image_Plane pPlane1
usemtl initialShadingGroup
f 55/77/293 56/78/294 58/80/295 57/79/296
g default
v 0.979565 6.551346 -0.777220
v 0.404261 6.551346 -1.367971
v 0.040146 4.868829 0.137635
v -0.535158 4.868829 -0.453117
vt 0.000000 0.000000
vt 1.000000 0.000000
vt 0.000000 1.000000
vt 1.000000 1.000000
vn 0.565068 -0.614717 -0.550292
vn 0.565068 -0.614717 -0.550292
vn 0.565068 -0.614717 -0.550292
vn 0.565068 -0.614717 -0.550292
s off
g pPlane2 Double_Sided_Image_Plane1
usemtl initialShadingGroup
f 59/81/297 61/83/298 62/84/299 60/82/300
g default
v 0.979565 6.551346 -0.777220
v 0.404261 6.551346 -1.367971
v 0.040146 4.868829 0.137635
v -0.535158 4.868829 -0.453117
vt 0.000000 0.000000
vt 1.000000 0.000000
vt 0.000000 1.000000
vt 1.000000 1.000000
vn -0.565068 0.614717 0.550292
vn -0.565068 0.614717 0.550292
vn -0.565068 0.614717 0.550292
vn -0.565068 0.614717 0.550292
s off
g Double_Sided_Image_Plane1 pPlane1
usemtl initialShadingGroup
f 63/85/301 64/86/302 66/88/303 65/87/304
g default
v -0.533999 5.924412 1.058056
v 0.289742 5.924412 1.095660
v -0.474201 4.241896 -0.251864
v 0.349540 4.241896 -0.214260
vt 0.000000 0.000000
vt 1.000000 0.000000
vt 0.000000 1.000000
vt 1.000000 1.000000
vn -0.035969 -0.614717 0.787927
vn -0.035969 -0.614717 0.787927
vn -0.035969 -0.614717 0.787927
vn -0.035969 -0.614717 0.787927
s off
g pPlane2 Double_Sided_Image_Plane2
usemtl initialShadingGroup
f 67/89/305 69/91/306 70/92/307 68/90/308
g default
v -0.533999 5.924412 1.058056
v 0.289742 5.924412 1.095660
v -0.474201 4.241896 -0.251864
v 0.349540 4.241896 -0.214260
vt 0.000000 0.000000
vt 1.000000 0.000000
vt 0.000000 1.000000
vt 1.000000 1.000000
vn 0.035969 0.614717 -0.787927
vn 0.035969 0.614717 -0.787927
vn 0.035969 0.614717 -0.787927
vn 0.035969 0.614717 -0.787927
s off
g Double_Sided_Image_Plane2 pPlane1
usemtl initialShadingGroup
f 71/93/309 72/94/310 74/96/311 73/95/312
g default
v -0.081376 4.938012 -1.474014
v -0.904816 4.938012 -1.430327
v -0.011904 3.255495 -0.164571
v -0.835345 3.255495 -0.120884
vt 0.000000 0.000000
vt 1.000000 0.000000
vt 0.000000 1.000000
vt 1.000000 1.000000
vn -0.041788 -0.614717 -0.787640
vn -0.041788 -0.614717 -0.787640
vn -0.041788 -0.614717 -0.787640
vn -0.041788 -0.614717 -0.787640
s off
g pPlane2 Double_Sided_Image_Plane3
usemtl initialShadingGroup
f 75/97/313 77/99/314 78/100/315 76/98/316
g default
v -0.081376 4.938012 -1.474014
v -0.904816 4.938012 -1.430327
v -0.011904 3.255495 -0.164571
v -0.835345 3.255495 -0.120884
vt 0.000000 0.000000
vt 1.000000 0.000000
vt 0.000000 1.000000
vt 1.000000 1.000000
vn 0.041788 0.614717 0.787640
vn 0.041788 0.614717 0.787640
vn 0.041788 0.614717 0.787640
vn 0.041788 0.614717 0.787640
s off
g Double_Sided_Image_Plane3 pPlane1
usemtl initialShadingGroup
f 79/101/317 80/102/318 82/104/319 81/103/320
g default
v 1.279113 3.515207 0.059287
v 0.979108 3.515207 -0.708802
v 0.057692 1.832691 0.536358
v -0.242313 1.832691 -0.231731
vt 0.000000 0.000000
vt 1.000000 0.000000
vt 0.000000 1.000000
vt 1.000000 1.000000
vn 0.734694 -0.614717 -0.286962
vn 0.734694 -0.614717 -0.286962
vn 0.734694 -0.614717 -0.286962
vn 0.734694 -0.614717 -0.286962
s off
g pPlane2 Double_Sided_Image_Plane4
usemtl initialShadingGroup
f 83/105/321 85/107/322 86/108/323 84/106/324
g default
v 1.279113 3.515207 0.059287
v 0.979108 3.515207 -0.708802
v 0.057692 1.832691 0.536358
v -0.242313 1.832691 -0.231731
vt 0.000000 0.000000
vt 1.000000 0.000000
vt 0.000000 1.000000
vt 1.000000 1.000000
vn -0.734694 0.614717 0.286962
vn -0.734694 0.614717 0.286962
vn -0.734694 0.614717 0.286962
vn -0.734694 0.614717 0.286962
s off
g Double_Sided_Image_Plane4 pPlane1
usemtl initialShadingGroup
f 87/109/325 88/110/326 90/112/327 89/111/328
g default
v -1.389641 4.239511 0.030857
v -1.074037 4.223793 0.792506
v -0.282188 2.484876 -0.464249
v 0.033417 2.469158 0.297400
vt 0.000000 0.000000
vt 1.000000 0.000000
vt 0.000000 1.000000
vt 1.000000 1.000000
vn -0.764187 -0.568364 0.304927
vn -0.764187 -0.568364 0.304927
vn -0.764187 -0.568364 0.304927
vn -0.764187 -0.568364 0.304927
s off
g pPlane2 Double_Sided_Image_Plane5
usemtl initialShadingGroup
f 91/113/329 93/115/330 94/116/331 92/114/332
g default
v -1.389641 4.239511 0.030857
v -1.074037 4.223793 0.792506
v -0.282188 2.484876 -0.464249
v 0.033417 2.469158 0.297400
vt 0.000000 0.000000
vt 1.000000 0.000000
vt 0.000000 1.000000
vt 1.000000 1.000000
vn 0.764187 0.568364 -0.304927
vn 0.764187 0.568364 -0.304927
vn 0.764187 0.568364 -0.304927
vn 0.764187 0.568364 -0.304927
s off
g Double_Sided_Image_Plane5 pPlane1
usemtl initialShadingGroup
f 95/117/333 96/118/334 98/120/335 97/119/336
