# This file uses centimeters as units for non-parametric coordinates.

mtllib Seed Mesh.mtl
g default
v 0.202807 0.257688 -0.433013
v 0.253112 0.861039 -0.667153
v 0.704729 0.613520 -0.013272
v 0.291630 1.333711 -0.814204
v 0.642138 0.965013 -0.015363
v 0.216772 1.806383 -0.625843
v 0.414200 1.784748 -0.367918
v 0.000000 2.224195 -0.272363
v 0.000000 -0.000000 -0.000000
v 0.000000 0.226245 -0.542853
v 0.004128 0.861039 -0.916966
v 0.004128 1.333711 -1.014714
v -0.008732 1.806383 -0.738779
v 0.000000 0.000000 -0.000000
v -0.202807 0.257688 -0.433013
v -0.405518 0.178683 0.007637
v -0.244856 0.861039 -0.667153
v -0.700027 0.613520 0.013184
v -0.283374 1.333711 -0.814204
v -0.632718 0.965013 0.015186
v -0.205752 1.806383 -0.625843
v -0.409489 1.784748 -0.367918
v 0.402067 0.178683 -0.007572
v 0.417931 0.198935 -0.007871
v -0.000000 0.000000 0.000000
v 0.213443 0.257688 0.425173
v 0.269583 0.861039 0.661756
v 0.311727 1.333711 0.807287
v 0.232254 1.806383 0.623254
v 0.422109 1.784748 0.358792
v 0.013650 2.224195 0.272106
v 0.010731 0.226245 0.542651
v 0.020715 0.861039 0.920945
v 0.024359 1.333711 1.018624
v 0.035350 1.806383 0.742725
v -0.191981 0.257688 0.440448
v -0.228153 0.861039 0.680508
v -0.263008 1.333711 0.828941
v -0.190073 1.806383 0.639165
v -0.401195 1.784748 0.394114
vt 0.000000 0.166667
vt 0.000000 0.333333
vt 0.833333 0.333333
vt 1.000000 0.166667
vt 1.000000 0.333333
vt 0.000000 0.500000
vt 0.833333 0.500000
vt 1.000000 0.500000
vt 0.000000 0.666667
vt 0.833333 0.666667
vt 1.000000 0.666667
vt 0.055553 0.888886
vt 0.777779 0.925923
vt 0.083333 0.166667
vt 0.083333 0.333333
vt 0.083333 0.500000
vt 0.083333 0.666667
vt 0.083333 0.000000
vt 0.000000 0.166667
vt 0.083333 0.166667
vt 0.083333 0.333333
vt 0.000000 0.333333
vt 0.833333 0.166667
vt 1.000000 0.166667
vt 1.000000 0.333333
vt 0.833333 0.333333
vt 0.083333 0.500000
vt 0.000000 0.500000
vt 1.000000 0.500000
vt 0.833333 0.500000
vt 0.083333 0.666667
vt 0.000000 0.666667
vt 1.000000 0.666667
vt 0.833333 0.666667
vt 0.055553 0.888886
vt 0.777779 0.925923
vt 0.916667 0.000000
vt 0.916667 0.000000
vt 0.083333 0.000000
vt 0.836248 0.166667
vt 0.833333 0.173581
vt 0.916667 -0.000000
vt 0.083333 -0.000000
vt 0.000000 0.166667
vt 0.083333 0.166667
vt 0.083333 0.333333
vt 0.000000 0.333333
vt 0.083333 0.500000
vt 0.000000 0.500000
vt 0.833333 0.333333
vt 1.000000 0.333333
vt 1.000000 0.500000
vt 0.083333 0.666667
vt 0.000000 0.666667
vt 1.000000 0.666667
vt 0.833333 0.666667
vt 0.055553 0.888886
vt 0.777779 0.925923
vt 1.000000 0.166667
vt 0.836248 0.166667
vt 0.916667 -0.000000
vt 0.083333 0.000000
vt 0.083333 -0.000000
vt 0.000000 0.166667
vt 0.000000 0.333333
vt 0.083333 0.333333
vt 0.083333 0.166667
vt 0.833333 0.166667
vt 0.833333 0.333333
vt 1.000000 0.333333
vt 1.000000 0.166667
vt 0.000000 0.500000
vt 0.083333 0.500000
vt 1.000000 0.500000
vt 0.000000 0.666667
vt 0.083333 0.666667
vt 0.833333 0.666667
vt 1.000000 0.666667
vt 0.055553 0.888886
vt 0.777779 0.925923
vt 0.916667 0.000000
vt 0.916667 0.000000
vt 0.083333 0.000000
vt 0.833333 0.173581
vn -0.002056 -0.507720 -0.861520
vn 0.003851 -0.443836 -0.896100
vn 0.554069 -0.402185 -0.728873
vn 0.672001 -0.315945 -0.669771
vn 0.000000 -0.202514 -0.979280
vn 0.000000 -0.291340 -0.956620
vn 0.635011 -0.211772 -0.742909
vn 0.547647 -0.288920 -0.785244
vn 0.839000 0.146284 -0.524100
vn 0.858477 -0.162270 -0.486504
vn 0.856080 0.031040 -0.515910
vn 0.853048 -0.217137 -0.474511
vn 0.527892 0.385235 -0.756917
vn 0.007355 0.468571 -0.883395
vn 0.460282 0.431314 -0.775957
vn -0.010103 0.503925 -0.863688
vn 0.927501 0.103402 -0.359236
vn 0.912493 0.134358 -0.386400
vn 0.906689 0.145386 -0.395952
vn 0.760107 0.340842 -0.553230
vn 0.318419 0.703110 -0.635803
vn 0.000323 0.744847 -0.667235
vn 0.020026 0.744514 -0.667306
vn 0.615389 0.670235 -0.414827
vn 0.615389 0.670235 -0.414827
vn 0.615389 0.670235 -0.414827
vn 0.377079 -0.862763 -0.336825
vn 0.406030 -0.913846 -0.005032
vn 0.406030 -0.913846 -0.005032
vn -0.776598 0.629996 0.000000
vn -0.000001 -0.923043 -0.384697
vn 0.331578 -0.870825 -0.362934
vn 0.000000 -0.923043 -0.384697
vn -0.673933 -0.307632 -0.671697
vn -0.555333 -0.396077 -0.731251
vn -0.748418 -0.501355 -0.434182
vn -0.752325 -0.356860 -0.553768
vn -0.750946 -0.337835 -0.567404
vn -0.745191 -0.285754 -0.602524
vn -0.547647 -0.288920 -0.785244
vn -0.635011 -0.211772 -0.742909
vn -0.846441 0.164973 -0.506282
vn -0.865208 0.047938 -0.499116
vn -0.868669 -0.157010 -0.469853
vn -0.863022 -0.212855 -0.458133
vn -0.527263 0.387860 -0.756015
vn -0.488606 0.414629 -0.767690
vn -0.931449 0.088728 -0.352889
vn -0.910208 0.133432 -0.392067
vn -0.915481 0.123065 -0.383079
vn -0.749768 0.347520 -0.563096
vn -0.355382 0.699524 -0.619976
vn -0.612764 0.664126 -0.428319
vn -0.612764 0.664125 -0.428319
vn -0.612764 0.664126 -0.428319
vn -0.373551 -0.862374 0.341717
vn -0.403137 -0.915126 0.004997
vn -0.385609 -0.860956 -0.331754
vn -0.385610 -0.860955 -0.331754
vn -0.331578 -0.870825 -0.362934
vn 0.728087 -0.299908 -0.616396
vn 0.735929 -0.366670 -0.569177
vn 0.734315 -0.349251 -0.582070
vn 0.705902 -0.559389 -0.434496
vn 0.733707 -0.515610 -0.442516
vn 0.683200 -0.320794 0.655994
vn 0.036472 -0.448875 0.892850
vn 0.571893 -0.403979 0.713960
vn 0.031655 -0.512035 0.858381
vn 0.567337 -0.288104 0.771443
vn 0.038688 -0.291274 0.955857
vn 0.650222 -0.213219 0.729211
vn 0.034346 -0.202512 0.978677
vn 0.855257 0.155239 0.494406
vn 0.873016 0.038152 0.486198
vn 0.875098 -0.159053 0.457062
vn 0.869269 -0.214616 0.445322
vn 0.547542 0.381940 0.744526
vn 0.509386 0.409182 0.757031
vn 0.022161 0.466800 0.884085
vn 0.044682 0.502830 0.863230
vn 0.938008 0.100343 0.331772
vn 0.918705 0.141726 0.368638
vn 0.924058 0.130953 0.359122
vn 0.777585 0.337337 0.530627
vn 0.368649 0.703520 0.607583
vn 0.008676 0.747986 0.663658
vn 0.026264 0.748158 0.663000
vn 0.631182 0.665321 0.398694
vn 0.631182 0.665321 0.398694
vn 0.631182 0.665321 0.398694
vn 0.388950 -0.861352 0.326788
vn -0.776598 0.629996 0.000000
vn 0.341235 -0.869970 0.355965
vn 0.018498 -0.922964 0.384441
vn 0.014013 -0.923000 0.384545
vn -0.534844 -0.402922 0.742695
vn -0.660251 -0.311495 0.683403
vn -0.734829 -0.503487 0.454452
vn -0.733525 -0.342165 0.587252
vn -0.735269 -0.361016 0.573626
vn -0.726932 -0.291053 0.621979
vn -0.619303 -0.210279 0.756470
vn -0.527257 -0.289722 0.798787
vn -0.832867 0.156467 0.530897
vn -0.854357 -0.159607 0.494569
vn -0.850741 0.042118 0.523895
vn -0.849101 -0.214238 0.482835
vn -0.507890 0.387298 0.769446
vn -0.435544 0.435056 0.788053
vn -0.921038 0.084374 0.380223
vn -0.903800 0.119314 0.410987
vn -0.897795 0.130465 0.420646
vn -0.724722 0.350102 0.593470
vn -0.294911 0.707764 0.641948
vn -0.586133 0.676928 0.445215
vn -0.586133 0.676928 0.445215
vn -0.586133 0.676928 0.445215
vn -0.373552 -0.862374 0.341717
vn -0.321642 -0.871670 0.369782
vn 0.747112 -0.301750 0.592259
vn 0.751958 -0.349798 0.558749
vn 0.753105 -0.366957 0.546054
vn 0.719126 -0.557212 0.415178
vn 0.746943 -0.513488 0.422382
vn 0.021955 0.400143 0.916190
vn 0.016685 0.405767 0.913824
vn 0.012773 0.409925 0.912030
vn 0.000000 0.423394 0.905946
vn -0.021847 0.410268 -0.911703
vn -0.028888 0.417809 -0.908076
vn -0.025911 0.414626 -0.909623
vn -0.038734 0.428274 -0.902818
vn 0.000000 -0.212478 0.977166
vn 0.000000 -0.212478 0.977166
vn 0.000000 -0.212478 0.977166
vn -0.041709 -0.230539 -0.972169
vn -0.041709 -0.230539 -0.972169
vn -0.041709 -0.230539 -0.972169
s 1
g pasted__pSphere3
usemtl initialShadingGroup
f 10/14/1 11/15/2 1/1/3
f 1/1/3 11/15/2 2/2/4
s 2
f 11/15/5 12/16/6 2/2/7
f 2/2/7 12/16/6 4/6/8
s 3
f 3/3/9 2/5/10 5/7/11
f 5/7/11 2/5/10 4/8/12
s 4
f 4/6/13 12/16/14 6/9/15
f 6/9/15 12/16/14 13/17/16
s 5
f 5/7/17 4/8/18 7/10/19
f 7/10/19 4/8/18 6/11/20
s 6
f 6/9/21 13/17/22 8/12/23
s off
f 7/10/24 6/11/25 8/13/26
s 7
f 1/4/27 23/40/28 25/42/29
s 8
f 25/43/30 14/18/31 1/1/32
f 14/18/31 10/14/33 1/1/32
s 1
f 17/22/34 11/21/2 15/19/35
f 15/19/35 11/21/2 10/20/1
s 9
f 16/23/36 18/26/37 15/24/38
f 15/24/38 18/26/37 17/25/39
s 2
f 19/28/40 12/27/6 17/22/41
f 17/22/41 12/27/6 11/21/5
s 10
f 18/26/42 20/30/43 17/25/44
f 17/25/44 20/30/43 19/29/45
s 4
f 19/28/46 21/32/47 12/27/14
f 12/27/14 21/32/47 13/31/16
s 11
f 20/30/48 22/34/49 19/29/50
f 19/29/50 22/34/49 21/33/51
s 6
f 21/32/52 8/35/23 13/31/22
s off
f 22/34/53 8/36/54 21/33/55
s 12
f 9/37/56 16/23/57 14/38/58
f 15/24/59 14/38/58 16/23/57
s 8
f 14/39/31 15/19/60 10/20/33
s 13
f 2/5/61 3/3/62 1/4/63
f 23/40/64 1/4/63 24/41/65
f 24/41/65 1/4/63 3/3/62
s 14
f 27/47/66 33/46/67 26/44/68
f 26/44/68 33/46/67 32/45/69
s 15
f 28/49/70 34/48/71 27/47/72
f 27/47/72 34/48/71 33/46/73
s 16
f 3/50/74 5/7/75 27/51/76
f 27/51/76 5/7/75 28/52/77
s 17
f 28/49/78 29/54/79 34/48/80
f 34/48/80 29/54/79 35/53/81
s 18
f 5/7/82 30/56/83 28/52/84
f 28/52/84 30/56/83 29/55/85
s 19
f 29/54/86 31/57/87 35/53/88
s off
f 30/56/89 31/58/90 29/55/91
s 7
f 26/59/92 25/61/29 23/60/28
s 20
f 25/63/93 26/44/94 14/62/95
f 14/62/95 26/44/94 32/45/96
s 14
f 32/67/69 33/66/67 36/64/97
f 36/64/97 33/66/67 37/65/98
s 21
f 16/68/99 36/71/100 18/69/101
f 18/69/101 36/71/100 37/70/102
s 15
f 33/66/73 34/73/71 37/65/103
f 37/65/103 34/73/71 38/72/104
s 22
f 18/69/105 37/70/106 20/30/107
f 20/30/107 37/70/106 38/74/108
s 17
f 38/72/109 34/73/80 39/75/110
f 39/75/110 34/73/80 35/76/81
s 23
f 20/30/111 38/74/112 40/77/113
f 40/77/113 38/74/112 39/78/114
s 19
f 39/75/115 35/76/88 31/79/87
s off
f 40/77/116 39/78/117 31/80/118
s 12
f 14/81/58 36/71/119 9/82/56
f 36/71/119 16/68/57 9/82/56
s 20
f 14/83/95 32/67/96 36/64/120
s 24
f 27/51/121 26/59/122 3/50/123
f 23/60/124 24/84/125 26/59/122
f 24/84/125 3/50/123 26/59/122
s 25
f 5/7/126 7/10/127 20/30/128
f 20/30/128 7/10/127 22/34/129
s 26
f 5/7/130 20/30/131 30/56/132
f 30/56/132 20/30/131 40/77/133
s off
f 8/36/134 22/34/135 7/10/136
f 31/58/137 30/56/138 40/77/139
g default
v 0.307354 0.916589 0.093543
v 0.213286 0.917335 -0.226163
v -0.152614 0.910130 -0.248830
v -0.284846 0.904946 0.059586
v -0.001790 0.908907 0.270552
v 0.418474 1.264308 0.285230
v 0.419095 1.268973 -0.250388
v -0.137267 1.257042 -0.456078
v -0.486152 1.244973 -0.035391
v -0.147893 1.249303 0.418041
v 0.298713 1.688871 0.400831
v 0.466464 1.698118 -0.107127
v 0.002651 1.687563 -0.476932
v -0.460687 1.671619 -0.186140
v -0.281778 1.672268 0.349406
v 0.119511 2.030642 0.282040
v 0.287481 2.038393 -0.005260
v 0.053467 2.033029 -0.287495
v -0.261928 2.021896 -0.172291
v -0.221784 2.020387 0.177771
v 0.016579 0.779660 -0.011002
v -0.008930 2.160700 0.000000
vt 0.000000 0.200000
vt 0.200000 0.200000
vt 0.400000 0.200000
vt 0.600000 0.200000
vt 0.800000 0.200000
vt 1.000000 0.200000
vt 0.000000 0.400000
vt 0.200000 0.400000
vt 0.400000 0.400000
vt 0.600000 0.400000
vt 0.800000 0.400000
vt 1.000000 0.400000
vt 0.000000 0.600000
vt 0.200000 0.600000
vt 0.400000 0.600000
vt 0.600000 0.600000
vt 0.800000 0.600000
vt 1.000000 0.600000
vt 0.000000 0.800000
vt 0.200000 0.800000
vt 0.400000 0.800000
vt 0.600000 0.800000
vt 0.800000 0.800000
vt 1.000000 0.800000
vt 0.100000 0.000000
vt 0.300000 0.000000
vt 0.500000 0.000000
vt 0.700000 0.000000
vt 0.900000 0.000000
vt 0.100000 1.000000
vt 0.300000 1.000000
vt 0.500000 1.000000
vt 0.700000 1.000000
vt 0.900000 1.000000
vn 0.915039 -0.390140 -0.102440
vn 0.915039 -0.390140 -0.102440
vn 0.915039 -0.390140 -0.102440
vn 0.915039 -0.390140 -0.102440
vn 0.230438 -0.371039 -0.899572
vn 0.230438 -0.371039 -0.899572
vn 0.230438 -0.371039 -0.899572
vn 0.230438 -0.371039 -0.899572
vn -0.750643 -0.425563 -0.505402
vn -0.750643 -0.425562 -0.505402
vn -0.750643 -0.425563 -0.505402
vn -0.750643 -0.425563 -0.505402
vn -0.669885 -0.390751 0.631322
vn -0.669885 -0.390751 0.631322
vn -0.669885 -0.390751 0.631322
vn -0.669885 -0.390751 0.631322
vn 0.314095 -0.406846 0.857800
vn 0.314095 -0.406846 0.857800
vn 0.314095 -0.406846 0.857800
vn 0.314095 -0.406846 0.857800
vn 0.986546 0.035250 0.159641
vn 0.986546 0.035250 0.159641
vn 0.986546 0.035250 0.159641
vn 0.986546 0.035250 0.159641
vn 0.490973 0.017057 -0.871008
vn 0.490973 0.017057 -0.871008
vn 0.490973 0.017057 -0.871008
vn 0.490973 0.017057 -0.871008
vn -0.658270 -0.023623 -0.752411
vn -0.658270 -0.023623 -0.752411
vn -0.658270 -0.023623 -0.752411
vn -0.658270 -0.023623 -0.752411
vn -0.886146 0.006566 0.463361
vn -0.886146 0.006566 0.463361
vn -0.886146 0.006566 0.463361
vn -0.886146 0.006566 0.463361
vn 0.071672 -0.033791 0.996856
vn 0.071672 -0.033791 0.996856
vn 0.071672 -0.033791 0.996856
vn 0.071672 -0.033791 0.996856
vn 0.823323 0.441236 0.357000
vn 0.823323 0.441236 0.357000
vn 0.823323 0.441236 0.357000
vn 0.823323 0.441236 0.357000
vn 0.620205 0.402053 -0.673572
vn 0.620205 0.402053 -0.673572
vn 0.620205 0.402053 -0.673572
vn 0.620205 0.402053 -0.673572
vn -0.435820 0.392928 -0.809734
vn -0.435820 0.392928 -0.809734
vn -0.435820 0.392928 -0.809734
vn -0.435820 0.392928 -0.809734
vn -0.896847 0.382480 0.222205
vn -0.896847 0.382480 0.222205
vn -0.896847 0.382480 0.222205
vn -0.896847 0.382480 0.222205
vn -0.165633 0.358188 0.918840
vn -0.165633 0.358188 0.918840
vn -0.165633 0.358188 0.918840
vn -0.165633 0.358188 0.918840
vn 0.462141 -0.876000 -0.138021
vn 0.462141 -0.876000 -0.138022
vn 0.462141 -0.876000 -0.138021
vn 0.048334 -0.860814 -0.506619
vn 0.048334 -0.860814 -0.506619
vn 0.048334 -0.860814 -0.506619
vn -0.414767 -0.889272 -0.192778
vn -0.414767 -0.889272 -0.192778
vn -0.414767 -0.889272 -0.192778
vn -0.275482 -0.880341 0.386146
vn -0.275482 -0.880341 0.386146
vn -0.275482 -0.880341 0.386146
vn 0.260286 -0.870943 0.416785
vn 0.260286 -0.870943 0.416785
vn 0.260286 -0.870943 0.416785
vn 0.373709 0.895247 0.242641
vn 0.373708 0.895247 0.242641
vn 0.373709 0.895247 0.242641
vn 0.357494 0.879854 -0.313136
vn 0.357494 0.879854 -0.313136
vn 0.357494 0.879854 -0.313136
vn -0.189107 0.881565 -0.432530
vn -0.189107 0.881565 -0.432530
vn -0.189107 0.881565 -0.432530
vn -0.512418 0.856462 0.062456
vn -0.512418 0.856462 0.062456
vn -0.512418 0.856462 0.062456
vn -0.171290 0.862699 0.475825
vn -0.171290 0.862699 0.475825
vn -0.171290 0.862699 0.475825
s off
g pSphere1
usemtl initialShadingGroup
f 41/85/140 42/86/141 47/92/142 46/91/143
f 42/86/144 43/87/145 48/93/146 47/92/147
f 43/87/148 44/88/149 49/94/150 48/93/151
f 44/88/152 45/89/153 50/95/154 49/94/155
f 45/89/156 41/90/157 46/96/158 50/95/159
f 46/91/160 47/92/161 52/98/162 51/97/163
f 47/92/164 48/93/165 53/99/166 52/98/167
f 48/93/168 49/94/169 54/100/170 53/99/171
f 49/94/172 50/95/173 55/101/174 54/100/175
f 50/95/176 46/96/177 51/102/178 55/101/179
f 51/97/180 52/98/181 57/104/182 56/103/183
f 52/98/184 53/99/185 58/105/186 57/104/187
f 53/99/188 54/100/189 59/106/190 58/105/191
f 54/100/192 55/101/193 60/107/194 59/106/195
f 55/101/196 51/102/197 56/108/198 60/107/199
f 42/86/200 41/85/201 61/109/202
f 43/87/203 42/86/204 61/110/205
f 44/88/206 43/87/207 61/111/208
f 45/89/209 44/88/210 61/112/211
f 41/90/212 45/89/213 61/113/214
f 56/103/215 57/104/216 62/114/217
f 57/104/218 58/105/219 62/115/220
f 58/105/221 59/106/222 62/116/223
f 59/106/224 60/107/225 62/117/226
f 60/107/227 56/108/228 62/118/229
