# This file uses centimeters as units for non-parametric coordinates.

mtllib Grass Blade Mesh 2 test.mtl
g default
v -0.021163 0.025763 0.000000
v -0.008895 0.012231 0.000000
v 0.000000 0.000000 0.000000
v 0.008895 0.012231 0.000000
v 0.021163 0.025763 0.000000
v -0.034176 0.076847 0.000000
v -0.017088 0.076847 0.000000
v 0.000000 0.076847 0.000000
v 0.017088 0.076847 0.000000
v 0.034176 0.076847 0.000000
v -0.034176 0.153694 0.000000
v -0.017088 0.153694 0.000000
v 0.000000 0.153694 0.000000
v 0.017088 0.153694 0.000000
v 0.034176 0.153694 0.000000
v -0.022805 0.230540 0.000000
v -0.011403 0.230540 0.000000
v 0.000000 0.230540 0.000000
v 0.011403 0.230540 0.000000
v 0.022805 0.230540 0.000000
v -0.000000 0.307387 0.000000
v -0.000000 0.307387 0.000000
v 0.000000 0.307387 0.000000
v 0.000000 0.307387 0.000000
v 0.000000 0.307387 0.000000
v 0.021163 0.025763 0.000000
v 0.008895 0.012231 0.000000
v 0.000000 0.000000 0.000000
v -0.008895 0.012231 -0.000000
v -0.021163 0.025763 -0.000000
v 0.034176 0.076847 0.000000
v 0.017088 0.076847 0.000000
v 0.000000 0.076847 0.000000
v -0.017088 0.076847 -0.000000
v -0.034176 0.076847 -0.000000
v 0.034176 0.153694 0.000000
v 0.017088 0.153694 0.000000
v 0.000000 0.153694 0.000000
v -0.017088 0.153694 -0.000000
v -0.034176 0.153694 -0.000000
v 0.022805 0.230540 0.000000
v 0.011403 0.230540 0.000000
v 0.000000 0.230540 0.000000
v -0.011403 0.230540 -0.000000
v -0.022805 0.230540 -0.000000
v 0.000000 0.307387 0.000000
v 0.000000 0.307387 0.000000
v 0.000000 0.307387 0.000000
v -0.000000 0.307387 -0.000000
v -0.000000 0.307387 -0.000000
vt 0.000000 0.000000
vt 0.250000 0.000000
vt 0.500000 0.000000
vt 0.750000 0.000000
vt 1.000000 0.000000
vt 0.000000 0.250000
vt 0.250000 0.250000
vt 0.500000 0.250000
vt 0.750000 0.250000
vt 1.000000 0.250000
vt 0.000000 0.500000
vt 0.250000 0.500000
vt 0.500000 0.500000
vt 0.750000 0.500000
vt 1.000000 0.500000
vt 0.000000 0.750000
vt 0.250000 0.750000
vt 0.500000 0.750000
vt 0.750000 0.750000
vt 1.000000 0.750000
vt 0.000000 1.000000
vt 0.250000 1.000000
vt 0.500000 1.000000
vt 0.750000 1.000000
vt 1.000000 1.000000
vt 0.000000 0.000000
vt 0.250000 0.000000
vt 0.250000 0.250000
vt 0.000000 0.250000
vt 0.500000 0.000000
vt 0.500000 0.250000
vt 0.750000 0.000000
vt 0.750000 0.250000
vt 1.000000 0.000000
vt 1.000000 0.250000
vt 0.250000 0.500000
vt 0.000000 0.500000
vt 0.500000 0.500000
vt 0.750000 0.500000
vt 1.000000 0.500000
vt 0.250000 0.750000
vt 0.000000 0.750000
vt 0.500000 0.750000
vt 0.750000 0.750000
vt 1.000000 0.750000
vt 0.250000 1.000000
vt 0.000000 1.000000
vt 0.500000 1.000000
vt 0.750000 1.000000
vt 1.000000 1.000000
vn 0.000000 0.000000 1.000000
vn 0.000000 0.000000 1.000000
vn 0.000000 0.000000 1.000000
vn 0.000000 0.000000 1.000000
vn 0.000000 0.000000 1.000000
vn 0.000000 0.000000 1.000000
vn -0.000000 0.000000 1.000000
vn -0.000000 0.000000 1.000000
vn -0.000000 0.000000 1.000000
vn -0.000000 0.000000 1.000000
vn 0.000000 0.000000 1.000000
vn 0.000000 0.000000 1.000000
vn 0.000000 0.000000 1.000000
vn 0.000000 0.000000 1.000000
vn 0.000000 0.000000 1.000000
vn 0.000000 0.000000 1.000000
vn 0.000000 0.000000 1.000000
vn 0.000000 0.000000 1.000000
vn 0.000000 0.000000 1.000000
vn 0.000000 0.000000 1.000000
vn 0.000000 0.000000 1.000000
vn 0.000000 0.000000 1.000000
vn 0.000000 0.000000 1.000000
vn 0.000000 0.000000 1.000000
vn 0.000000 0.000000 1.000000
vn 0.000000 -0.000000 -1.000000
vn 0.000000 -0.000000 -1.000000
vn 0.000000 -0.000000 -1.000000
vn 0.000000 -0.000000 -1.000000
vn 0.000000 -0.000000 -1.000000
vn 0.000000 -0.000000 -1.000000
vn 0.000000 0.000000 -1.000000
vn 0.000000 0.000000 -1.000000
vn 0.000000 0.000000 -1.000000
vn 0.000000 0.000000 -1.000000
vn 0.000000 0.000000 -1.000000
vn 0.000000 0.000000 -1.000000
vn 0.000000 0.000000 -1.000000
vn 0.000000 -0.000000 -1.000000
vn 0.000000 -0.000000 -1.000000
vn 0.000000 -0.000000 -1.000000
vn 0.000000 0.000000 -1.000000
vn 0.000000 0.000000 -1.000000
vn 0.000000 0.000000 -1.000000
vn 0.000000 0.000000 -1.000000
vn 0.000000 -0.000000 -1.000000
vn 0.000000 -0.000000 -1.000000
vn 0.000000 0.000000 -1.000000
vn 0.000000 0.000000 -1.000000
vn 0.000000 0.000000 -1.000000
s 1
g pPlane3
usemtl lambert2SG
f 1/1/1 2/2/2 7/7/3 6/6/4
f 2/2/2 3/3/5 8/8/6 7/7/3
f 3/3/5 4/4/7 9/9/8 8/8/6
f 4/4/7 5/5/9 10/10/10 9/9/8
f 6/6/4 7/7/3 12/12/11 11/11/12
f 7/7/3 8/8/6 13/13/13 12/12/11
f 8/8/6 9/9/8 14/14/14 13/13/13
f 9/9/8 10/10/10 15/15/15 14/14/14
f 11/11/12 12/12/11 17/17/16 16/16/17
f 12/12/11 13/13/13 18/18/18 17/17/16
f 13/13/13 14/14/14 19/19/19 18/18/18
f 14/14/14 15/15/15 20/20/20 19/19/19
f 16/16/17 17/17/16 22/22/21 21/21/22
f 17/17/16 18/18/18 23/23/23 22/22/21
f 18/18/18 19/19/19 24/24/24 23/23/23
f 19/19/19 20/20/20 25/25/25 24/24/24
s 2
f 26/26/26 27/27/27 32/28/28 31/29/29
f 27/27/27 28/30/30 33/31/31 32/28/28
f 28/30/30 29/32/32 34/33/33 33/31/31
f 29/32/32 30/34/34 35/35/35 34/33/33
f 31/29/29 32/28/28 37/36/36 36/37/37
f 32/28/28 33/31/31 38/38/38 37/36/36
f 33/31/31 34/33/33 39/39/39 38/38/38
f 34/33/33 35/35/35 40/40/40 39/39/39
f 36/37/37 37/36/36 42/41/41 41/42/42
f 37/36/36 38/38/38 43/43/43 42/41/41
f 38/38/38 39/39/39 44/44/44 43/43/43
f 39/39/39 40/40/40 45/45/45 44/44/44
f 41/42/42 42/41/41 47/46/46 46/47/47
f 42/41/41 43/43/43 48/48/48 47/46/46
f 43/43/43 44/44/44 49/49/49 48/48/48
f 44/44/44 45/45/45 50/50/50 49/49/49
